solid OpenSCAD_Model
  facet normal 0 0 -1
    outer loop
      vertex 4.66666 0 2
      vertex 9.16666 0 2
      vertex 9.09438 -1.14888 2
    endloop
  endfacet
  facet normal 0 0 -1
    outer loop
      vertex 4.62987 -0.584885 2
      vertex 9.09438 -1.14888 2
      vertex 8.87868 -2.27965 2
    endloop
  endfacet
  facet normal 0 0 -1
    outer loop
      vertex 9.16666 0 2
      vertex 4.66666 0 2
      vertex 9.09438 1.14888 2
    endloop
  endfacet
  facet normal 0 0 -1
    outer loop
      vertex 4.52005 -1.16054 2
      vertex 8.87868 -2.27965 2
      vertex 8.52295 -3.37447 2
    endloop
  endfacet
  facet normal 0 0 -1
    outer loop
      vertex 4.62987 0.584885 2
      vertex 9.09438 1.14888 2
      vertex 4.66666 0 2
    endloop
  endfacet
  facet normal 0 0 -1
    outer loop
      vertex 4.33894 -1.71791 2
      vertex 8.52295 -3.37447 2
      vertex 8.03281 -4.41606 2
    endloop
  endfacet
  facet normal -0 0 -1
    outer loop
      vertex 9.09438 1.14888 2
      vertex 4.62987 0.584885 2
      vertex 8.87868 2.27965 2
    endloop
  endfacet
  facet normal 0 0 -1
    outer loop
      vertex 4.08942 -2.24817 2
      vertex 8.03281 -4.41606 2
      vertex 7.41599 -5.38803 2
    endloop
  endfacet
  facet normal 0 0 -1
    outer loop
      vertex 4.52005 1.16054 2
      vertex 8.87868 2.27965 2
      vertex 4.62987 0.584885 2
    endloop
  endfacet
  facet normal 0 0 -1
    outer loop
      vertex 3.77541 -2.743 2
      vertex 7.41599 -5.38803 2
      vertex 6.68221 -6.27501 2
    endloop
  endfacet
  facet normal -0 0 -1
    outer loop
      vertex 8.87868 2.27965 2
      vertex 4.52005 1.16054 2
      vertex 8.52295 3.37447 2
    endloop
  endfacet
  facet normal 0 0 -1
    outer loop
      vertex 3.40184 -3.19455 2
      vertex 6.68221 -6.27501 2
      vertex 5.84305 -7.06303 2
    endloop
  endfacet
  facet normal 0 0 -1
    outer loop
      vertex 4.33894 1.71791 2
      vertex 8.52295 3.37447 2
      vertex 4.52005 1.16054 2
    endloop
  endfacet
  facet normal 0 0 -1
    outer loop
      vertex 2.97464 -3.59572 2
      vertex 5.84305 -7.06303 2
      vertex 4.91174 -7.73967 2
    endloop
  endfacet
  facet normal -0 0 -1
    outer loop
      vertex 8.52295 3.37447 2
      vertex 4.33894 1.71791 2
      vertex 8.03281 4.41606 2
    endloop
  endfacet
  facet normal 0 0 -1
    outer loop
      vertex 4.08942 2.24817 2
      vertex 8.03281 4.41606 2
      vertex 4.33894 1.71791 2
    endloop
  endfacet
  facet normal 0 0 -1
    outer loop
      vertex 9.09438 -1.14888 2
      vertex 4.62987 -0.584885 2
      vertex 4.66666 0 2
    endloop
  endfacet
  facet normal 0 0 -1
    outer loop
      vertex 8.87868 -2.27965 2
      vertex 4.52005 -1.16054 2
      vertex 4.62987 -0.584885 2
    endloop
  endfacet
  facet normal 0 0 -1
    outer loop
      vertex 8.52295 -3.37447 2
      vertex 4.33894 -1.71791 2
      vertex 4.52005 -1.16054 2
    endloop
  endfacet
  facet normal 0 0 -1
    outer loop
      vertex 8.03281 -4.41606 2
      vertex 4.08942 -2.24817 2
      vertex 4.33894 -1.71791 2
    endloop
  endfacet
  facet normal 0 0 -1
    outer loop
      vertex 2.50052 -3.94019 2
      vertex 4.91174 -7.73967 2
      vertex 3.90297 -8.29424 2
    endloop
  endfacet
  facet normal 0 0 -1
    outer loop
      vertex 7.41599 -5.38803 2
      vertex 3.77541 -2.743 2
      vertex 4.08942 -2.24817 2
    endloop
  endfacet
  facet normal 0 0 -1
    outer loop
      vertex 6.68221 -6.27501 2
      vertex 3.40184 -3.19455 2
      vertex 3.77541 -2.743 2
    endloop
  endfacet
  facet normal 0 0 -1
    outer loop
      vertex 5.84305 -7.06303 2
      vertex 2.97464 -3.59572 2
      vertex 3.40184 -3.19455 2
    endloop
  endfacet
  facet normal 0 0 -1
    outer loop
      vertex 1.98697 -4.22252 2
      vertex 3.90297 -8.29424 2
      vertex 2.83264 -8.71802 2
    endloop
  endfacet
  facet normal 0 0 -1
    outer loop
      vertex 4.91174 -7.73967 2
      vertex 2.50052 -3.94019 2
      vertex 2.97464 -3.59572 2
    endloop
  endfacet
  facet normal 0 0 -1
    outer loop
      vertex 3.90297 -8.29424 2
      vertex 1.98697 -4.22252 2
      vertex 2.50052 -3.94019 2
    endloop
  endfacet
  facet normal 0 0 -1
    outer loop
      vertex 1.44208 -4.43826 2
      vertex 2.83264 -8.71802 2
      vertex 1.71765 -9.00429 2
    endloop
  endfacet
  facet normal 0 0 -1
    outer loop
      vertex 2.83264 -8.71802 2
      vertex 1.44208 -4.43826 2
      vertex 1.98697 -4.22252 2
    endloop
  endfacet
  facet normal 0 0 -1
    outer loop
      vertex 1.71765 -9.00429 2
      vertex 0.874435 -4.584 2
      vertex 1.44208 -4.43826 2
    endloop
  endfacet
  facet normal 0 0 -1
    outer loop
      vertex 0.575577 -9.14857 2
      vertex 0.874435 -4.584 2
      vertex 1.71765 -9.00429 2
    endloop
  endfacet
  facet normal 0 0 -1
    outer loop
      vertex 0.575577 -9.14857 2
      vertex 0.293015 -4.65746 2
      vertex 0.874435 -4.584 2
    endloop
  endfacet
  facet normal 0 0 -1
    outer loop
      vertex 0.575577 -9.14857 2
      vertex -0.293015 -4.65746 2
      vertex 0.293015 -4.65746 2
    endloop
  endfacet
  facet normal 0 0 -1
    outer loop
      vertex -0.575577 -9.14857 2
      vertex -0.293015 -4.65746 2
      vertex 0.575577 -9.14857 2
    endloop
  endfacet
  facet normal 0 0 -1
    outer loop
      vertex -0.575577 -9.14857 2
      vertex -0.874435 -4.584 2
      vertex -0.293015 -4.65746 2
    endloop
  endfacet
  facet normal 0 0 -1
    outer loop
      vertex -1.71765 -9.00429 2
      vertex -0.874435 -4.584 2
      vertex -0.575577 -9.14857 2
    endloop
  endfacet
  facet normal -0 0 -1
    outer loop
      vertex -0.874435 -4.584 2
      vertex -1.71765 -9.00429 2
      vertex -1.44208 -4.43826 2
    endloop
  endfacet
  facet normal 0 0 -1
    outer loop
      vertex -2.83264 -8.71802 2
      vertex -1.44208 -4.43826 2
      vertex -1.71765 -9.00429 2
    endloop
  endfacet
  facet normal -0 0 -1
    outer loop
      vertex -1.44208 -4.43826 2
      vertex -2.83264 -8.71802 2
      vertex -1.98697 -4.22252 2
    endloop
  endfacet
  facet normal 0 0 -1
    outer loop
      vertex -3.90297 -8.29424 2
      vertex -1.98697 -4.22252 2
      vertex -2.83264 -8.71802 2
    endloop
  endfacet
  facet normal -0 0 -1
    outer loop
      vertex -1.98697 -4.22252 2
      vertex -3.90297 -8.29424 2
      vertex -2.50052 -3.94019 2
    endloop
  endfacet
  facet normal 0 0 -1
    outer loop
      vertex -4.91174 -7.73967 2
      vertex -2.50052 -3.94019 2
      vertex -3.90297 -8.29424 2
    endloop
  endfacet
  facet normal -0 0 -1
    outer loop
      vertex -2.50052 -3.94019 2
      vertex -4.91174 -7.73967 2
      vertex -2.97464 -3.59572 2
    endloop
  endfacet
  facet normal 0 0 -1
    outer loop
      vertex -5.84305 -7.06303 2
      vertex -2.97464 -3.59572 2
      vertex -4.91174 -7.73967 2
    endloop
  endfacet
  facet normal -0 0 -1
    outer loop
      vertex -2.97464 -3.59572 2
      vertex -5.84305 -7.06303 2
      vertex -3.40184 -3.19455 2
    endloop
  endfacet
  facet normal 0 0 -1
    outer loop
      vertex -6.68221 -6.27501 2
      vertex -3.40184 -3.19455 2
      vertex -5.84305 -7.06303 2
    endloop
  endfacet
  facet normal -0 0 -1
    outer loop
      vertex -3.40184 -3.19455 2
      vertex -6.68221 -6.27501 2
      vertex -3.77541 -2.743 2
    endloop
  endfacet
  facet normal 0 0 -1
    outer loop
      vertex -7.41599 -5.38803 2
      vertex -3.77541 -2.743 2
      vertex -6.68221 -6.27501 2
    endloop
  endfacet
  facet normal 0 0 -1
    outer loop
      vertex -8.03281 -4.41606 2
      vertex -4.08942 -2.24817 2
      vertex -7.41599 -5.38803 2
    endloop
  endfacet
  facet normal -0 0 -1
    outer loop
      vertex -3.77541 -2.743 2
      vertex -7.41599 -5.38803 2
      vertex -4.08942 -2.24817 2
    endloop
  endfacet
  facet normal -0 0 -1
    outer loop
      vertex 8.03281 4.41606 2
      vertex 4.08942 2.24817 2
      vertex 7.41599 5.38803 2
    endloop
  endfacet
  facet normal 0 0 -1
    outer loop
      vertex 3.77541 2.743 2
      vertex 7.41599 5.38803 2
      vertex 4.08942 2.24817 2
    endloop
  endfacet
  facet normal -0 0 -1
    outer loop
      vertex 7.41599 5.38803 2
      vertex 3.77541 2.743 2
      vertex 6.68221 6.27501 2
    endloop
  endfacet
  facet normal 0 0 -1
    outer loop
      vertex 3.40184 3.19455 2
      vertex 6.68221 6.27501 2
      vertex 3.77541 2.743 2
    endloop
  endfacet
  facet normal -0 0 -1
    outer loop
      vertex 6.68221 6.27501 2
      vertex 3.40184 3.19455 2
      vertex 5.84305 7.06303 2
    endloop
  endfacet
  facet normal 0 0 -1
    outer loop
      vertex 2.97464 3.59572 2
      vertex 5.84305 7.06303 2
      vertex 3.40184 3.19455 2
    endloop
  endfacet
  facet normal -0 0 -1
    outer loop
      vertex 5.84305 7.06303 2
      vertex 2.97464 3.59572 2
      vertex 4.91174 7.73967 2
    endloop
  endfacet
  facet normal 0 0 -1
    outer loop
      vertex 2.50052 3.94019 2
      vertex 4.91174 7.73967 2
      vertex 2.97464 3.59572 2
    endloop
  endfacet
  facet normal -0 0 -1
    outer loop
      vertex 4.91174 7.73967 2
      vertex 2.50052 3.94019 2
      vertex 3.90297 8.29424 2
    endloop
  endfacet
  facet normal 0 0 -1
    outer loop
      vertex 1.98697 4.22252 2
      vertex 3.90297 8.29424 2
      vertex 2.50052 3.94019 2
    endloop
  endfacet
  facet normal -0 0 -1
    outer loop
      vertex 3.90297 8.29424 2
      vertex 1.98697 4.22252 2
      vertex 2.83264 8.71802 2
    endloop
  endfacet
  facet normal 0 0 -1
    outer loop
      vertex 1.44208 4.43826 2
      vertex 2.83264 8.71802 2
      vertex 1.98697 4.22252 2
    endloop
  endfacet
  facet normal -0 0 -1
    outer loop
      vertex 2.83264 8.71802 2
      vertex 1.44208 4.43826 2
      vertex 1.71765 9.00429 2
    endloop
  endfacet
  facet normal 0 0 -1
    outer loop
      vertex 0.874435 4.584 2
      vertex 1.71765 9.00429 2
      vertex 1.44208 4.43826 2
    endloop
  endfacet
  facet normal 0 0 -1
    outer loop
      vertex 0.874435 4.584 2
      vertex 0.575577 9.14857 2
      vertex 1.71765 9.00429 2
    endloop
  endfacet
  facet normal 0 0 -1
    outer loop
      vertex 0.293015 4.65746 2
      vertex 0.575577 9.14857 2
      vertex 0.874435 4.584 2
    endloop
  endfacet
  facet normal 0 0 -1
    outer loop
      vertex -0.293015 4.65746 2
      vertex 0.575577 9.14857 2
      vertex 0.293015 4.65746 2
    endloop
  endfacet
  facet normal 0 0 -1
    outer loop
      vertex -0.293015 4.65746 2
      vertex -0.575577 9.14857 2
      vertex 0.575577 9.14857 2
    endloop
  endfacet
  facet normal 0 0 -1
    outer loop
      vertex -0.874435 4.584 2
      vertex -0.575577 9.14857 2
      vertex -0.293015 4.65746 2
    endloop
  endfacet
  facet normal 0 0 -1
    outer loop
      vertex -1.71765 9.00429 2
      vertex -0.874435 4.584 2
      vertex -1.44208 4.43826 2
    endloop
  endfacet
  facet normal 0 0 -1
    outer loop
      vertex -0.874435 4.584 2
      vertex -1.71765 9.00429 2
      vertex -0.575577 9.14857 2
    endloop
  endfacet
  facet normal 0 0 -1
    outer loop
      vertex -2.83264 8.71802 2
      vertex -1.44208 4.43826 2
      vertex -1.98697 4.22252 2
    endloop
  endfacet
  facet normal 0 0 -1
    outer loop
      vertex -3.90297 8.29424 2
      vertex -1.98697 4.22252 2
      vertex -2.50052 3.94019 2
    endloop
  endfacet
  facet normal 0 0 -1
    outer loop
      vertex -1.44208 4.43826 2
      vertex -2.83264 8.71802 2
      vertex -1.71765 9.00429 2
    endloop
  endfacet
  facet normal 0 0 -1
    outer loop
      vertex -4.91174 7.73967 2
      vertex -2.50052 3.94019 2
      vertex -2.97464 3.59572 2
    endloop
  endfacet
  facet normal 0 0 -1
    outer loop
      vertex -5.84305 7.06303 2
      vertex -2.97464 3.59572 2
      vertex -3.40184 3.19455 2
    endloop
  endfacet
  facet normal 0 0 -1
    outer loop
      vertex -6.68221 6.27501 2
      vertex -3.40184 3.19455 2
      vertex -3.77541 2.743 2
    endloop
  endfacet
  facet normal 0 0 -1
    outer loop
      vertex -1.98697 4.22252 2
      vertex -3.90297 8.29424 2
      vertex -2.83264 8.71802 2
    endloop
  endfacet
  facet normal 0 0 -1
    outer loop
      vertex -7.41599 5.38803 2
      vertex -3.77541 2.743 2
      vertex -4.08942 2.24817 2
    endloop
  endfacet
  facet normal 0 0 -1
    outer loop
      vertex -8.03281 4.41606 2
      vertex -4.08942 2.24817 2
      vertex -4.33894 1.71791 2
    endloop
  endfacet
  facet normal 0 0 -1
    outer loop
      vertex -8.52295 3.37447 2
      vertex -4.33894 1.71791 2
      vertex -4.52005 1.16054 2
    endloop
  endfacet
  facet normal 0 0 -1
    outer loop
      vertex -8.87868 2.27965 2
      vertex -4.52005 1.16054 2
      vertex -4.62987 0.584885 2
    endloop
  endfacet
  facet normal 0 0 -1
    outer loop
      vertex -2.50052 3.94019 2
      vertex -4.91174 7.73967 2
      vertex -3.90297 8.29424 2
    endloop
  endfacet
  facet normal 0 0 -1
    outer loop
      vertex -9.09438 1.14888 2
      vertex -4.62987 0.584885 2
      vertex -4.66666 0 2
    endloop
  endfacet
  facet normal -0 0 -1
    outer loop
      vertex -4.08942 -2.24817 2
      vertex -8.03281 -4.41606 2
      vertex -4.33894 -1.71791 2
    endloop
  endfacet
  facet normal 0 0 -1
    outer loop
      vertex -8.52295 -3.37447 2
      vertex -4.33894 -1.71791 2
      vertex -8.03281 -4.41606 2
    endloop
  endfacet
  facet normal 0 0 -1
    outer loop
      vertex -2.97464 3.59572 2
      vertex -5.84305 7.06303 2
      vertex -4.91174 7.73967 2
    endloop
  endfacet
  facet normal -0 0 -1
    outer loop
      vertex -4.33894 -1.71791 2
      vertex -8.52295 -3.37447 2
      vertex -4.52005 -1.16054 2
    endloop
  endfacet
  facet normal 0 0 -1
    outer loop
      vertex -3.40184 3.19455 2
      vertex -6.68221 6.27501 2
      vertex -5.84305 7.06303 2
    endloop
  endfacet
  facet normal 0 0 -1
    outer loop
      vertex -8.87868 -2.27965 2
      vertex -4.52005 -1.16054 2
      vertex -8.52295 -3.37447 2
    endloop
  endfacet
  facet normal 0 0 -1
    outer loop
      vertex -3.77541 2.743 2
      vertex -7.41599 5.38803 2
      vertex -6.68221 6.27501 2
    endloop
  endfacet
  facet normal -0 0 -1
    outer loop
      vertex -4.52005 -1.16054 2
      vertex -8.87868 -2.27965 2
      vertex -4.62987 -0.584885 2
    endloop
  endfacet
  facet normal 0 0 -1
    outer loop
      vertex -4.08942 2.24817 2
      vertex -8.03281 4.41606 2
      vertex -7.41599 5.38803 2
    endloop
  endfacet
  facet normal 0 0 -1
    outer loop
      vertex -9.09438 -1.14888 2
      vertex -4.62987 -0.584885 2
      vertex -8.87868 -2.27965 2
    endloop
  endfacet
  facet normal 0 0 -1
    outer loop
      vertex -4.33894 1.71791 2
      vertex -8.52295 3.37447 2
      vertex -8.03281 4.41606 2
    endloop
  endfacet
  facet normal -0 0 -1
    outer loop
      vertex -4.62987 -0.584885 2
      vertex -9.09438 -1.14888 2
      vertex -4.66666 0 2
    endloop
  endfacet
  facet normal 0 0 -1
    outer loop
      vertex -4.52005 1.16054 2
      vertex -8.87868 2.27965 2
      vertex -8.52295 3.37447 2
    endloop
  endfacet
  facet normal 0 0 -1
    outer loop
      vertex -9.16666 0 2
      vertex -4.66666 0 2
      vertex -9.09438 -1.14888 2
    endloop
  endfacet
  facet normal 0 0 -1
    outer loop
      vertex -4.62987 0.584885 2
      vertex -9.09438 1.14888 2
      vertex -8.87868 2.27965 2
    endloop
  endfacet
  facet normal 0 0 -1
    outer loop
      vertex -4.66666 0 2
      vertex -9.16666 0 2
      vertex -9.09438 1.14888 2
    endloop
  endfacet
  facet normal 0 0 1
    outer loop
      vertex 1.7 0 4
      vertex 9.16666 0 4
      vertex 9.09438 1.14888 4
    endloop
  endfacet
  facet normal 0 0 1
    outer loop
      vertex 1.68658 0.213058 4
      vertex 9.09438 1.14888 4
      vertex 8.87868 2.27965 4
    endloop
  endfacet
  facet normal 0 0 1
    outer loop
      vertex 9.16666 0 4
      vertex 1.7 0 4
      vertex 9.09438 -1.14888 4
    endloop
  endfacet
  facet normal 0 0 1
    outer loop
      vertex 1.64659 0.42276 4
      vertex 8.87868 2.27965 4
      vertex 8.52295 3.37447 4
    endloop
  endfacet
  facet normal -0 0 1
    outer loop
      vertex 1.68658 -0.213058 4
      vertex 9.09438 -1.14888 4
      vertex 1.7 0 4
    endloop
  endfacet
  facet normal 0 0 1
    outer loop
      vertex 1.58061 0.625809 4
      vertex 8.52295 3.37447 4
      vertex 8.03281 4.41606 4
    endloop
  endfacet
  facet normal 0 0 1
    outer loop
      vertex 9.09438 -1.14888 4
      vertex 1.68658 -0.213058 4
      vertex 8.87868 -2.27965 4
    endloop
  endfacet
  facet normal 0 0 1
    outer loop
      vertex 1.48972 0.81897 4
      vertex 8.03281 4.41606 4
      vertex 7.41599 5.38803 4
    endloop
  endfacet
  facet normal -0 0 1
    outer loop
      vertex 1.64659 -0.42276 4
      vertex 8.87868 -2.27965 4
      vertex 1.68658 -0.213058 4
    endloop
  endfacet
  facet normal 0 0 1
    outer loop
      vertex 1.37532 0.999222 4
      vertex 7.41599 5.38803 4
      vertex 6.68221 6.27501 4
    endloop
  endfacet
  facet normal 0 0 1
    outer loop
      vertex 8.87868 -2.27965 4
      vertex 1.64659 -0.42276 4
      vertex 8.52295 -3.37447 4
    endloop
  endfacet
  facet normal 0 0 1
    outer loop
      vertex 1.23924 1.16373 4
      vertex 6.68221 6.27501 4
      vertex 5.84305 7.06303 4
    endloop
  endfacet
  facet normal -0 0 1
    outer loop
      vertex 1.58061 -0.625809 4
      vertex 8.52295 -3.37447 4
      vertex 1.64659 -0.42276 4
    endloop
  endfacet
  facet normal 0 0 1
    outer loop
      vertex 1.08362 1.30986 4
      vertex 5.84305 7.06303 4
      vertex 4.91174 7.73967 4
    endloop
  endfacet
  facet normal 0 0 1
    outer loop
      vertex 8.52295 -3.37447 4
      vertex 1.58061 -0.625809 4
      vertex 8.03281 -4.41606 4
    endloop
  endfacet
  facet normal 0 0 1
    outer loop
      vertex 0.910904 1.43535 4
      vertex 4.91174 7.73967 4
      vertex 3.90297 8.29424 4
    endloop
  endfacet
  facet normal -0 0 1
    outer loop
      vertex 1.48972 -0.81897 4
      vertex 8.03281 -4.41606 4
      vertex 1.58061 -0.625809 4
    endloop
  endfacet
  facet normal 0 0 1
    outer loop
      vertex 0.723816 1.53819 4
      vertex 3.90297 8.29424 4
      vertex 2.83264 8.71802 4
    endloop
  endfacet
  facet normal 0 0 1
    outer loop
      vertex 8.03281 -4.41606 4
      vertex 1.48972 -0.81897 4
      vertex 7.41599 -5.38803 4
    endloop
  endfacet
  facet normal 0 0 1
    outer loop
      vertex 0.525314 1.61679 4
      vertex 2.83264 8.71802 4
      vertex 1.71765 9.00429 4
    endloop
  endfacet
  facet normal -0 0 1
    outer loop
      vertex 1.37532 -0.999222 4
      vertex 7.41599 -5.38803 4
      vertex 1.48972 -0.81897 4
    endloop
  endfacet
  facet normal 0 0 1
    outer loop
      vertex 7.41599 -5.38803 4
      vertex 1.37532 -0.999222 4
      vertex 6.68221 -6.27501 4
    endloop
  endfacet
  facet normal 0 0 1
    outer loop
      vertex 9.09438 1.14888 4
      vertex 1.68658 0.213058 4
      vertex 1.7 0 4
    endloop
  endfacet
  facet normal 0 0 1
    outer loop
      vertex 8.87868 2.27965 4
      vertex 1.64659 0.42276 4
      vertex 1.68658 0.213058 4
    endloop
  endfacet
  facet normal 0 0 1
    outer loop
      vertex 8.52295 3.37447 4
      vertex 1.58061 0.625809 4
      vertex 1.64659 0.42276 4
    endloop
  endfacet
  facet normal 0 0 1
    outer loop
      vertex 8.03281 4.41606 4
      vertex 1.48972 0.81897 4
      vertex 1.58061 0.625809 4
    endloop
  endfacet
  facet normal 0 0 1
    outer loop
      vertex 7.41599 5.38803 4
      vertex 1.37532 0.999222 4
      vertex 1.48972 0.81897 4
    endloop
  endfacet
  facet normal 0 0 1
    outer loop
      vertex 6.68221 6.27501 4
      vertex 1.23924 1.16373 4
      vertex 1.37532 0.999222 4
    endloop
  endfacet
  facet normal 0 0 1
    outer loop
      vertex 5.84305 7.06303 4
      vertex 1.08362 1.30986 4
      vertex 1.23924 1.16373 4
    endloop
  endfacet
  facet normal 0 0 1
    outer loop
      vertex 4.91174 7.73967 4
      vertex 0.910904 1.43535 4
      vertex 1.08362 1.30986 4
    endloop
  endfacet
  facet normal 0 0 1
    outer loop
      vertex 3.90297 8.29424 4
      vertex 0.723816 1.53819 4
      vertex 0.910904 1.43535 4
    endloop
  endfacet
  facet normal 0 0 1
    outer loop
      vertex 0.318542 1.66988 4
      vertex 1.71765 9.00429 4
      vertex 0.575577 9.14857 4
    endloop
  endfacet
  facet normal 0 0 1
    outer loop
      vertex 2.83264 8.71802 4
      vertex 0.525314 1.61679 4
      vertex 0.723816 1.53819 4
    endloop
  endfacet
  facet normal 0 0 1
    outer loop
      vertex 1.71765 9.00429 4
      vertex 0.318542 1.66988 4
      vertex 0.525314 1.61679 4
    endloop
  endfacet
  facet normal 0 0 1
    outer loop
      vertex 0.575577 9.14857 4
      vertex 0.106735 1.69664 4
      vertex 0.318542 1.66988 4
    endloop
  endfacet
  facet normal 0 0 1
    outer loop
      vertex 0.575577 9.14857 4
      vertex -0.106735 1.69664 4
      vertex 0.106735 1.69664 4
    endloop
  endfacet
  facet normal -0 0 1
    outer loop
      vertex -0.575577 9.14857 4
      vertex -0.106735 1.69664 4
      vertex 0.575577 9.14857 4
    endloop
  endfacet
  facet normal 0 0 1
    outer loop
      vertex -0.106735 1.69664 4
      vertex -0.575577 9.14857 4
      vertex -0.318542 1.66988 4
    endloop
  endfacet
  facet normal -0 0 1
    outer loop
      vertex -1.71765 9.00429 4
      vertex -0.318542 1.66988 4
      vertex -0.575577 9.14857 4
    endloop
  endfacet
  facet normal 0 0 1
    outer loop
      vertex -0.318542 1.66988 4
      vertex -1.71765 9.00429 4
      vertex -0.525314 1.61679 4
    endloop
  endfacet
  facet normal -0 0 1
    outer loop
      vertex -2.83264 8.71802 4
      vertex -0.525314 1.61679 4
      vertex -1.71765 9.00429 4
    endloop
  endfacet
  facet normal 0 0 1
    outer loop
      vertex -0.525314 1.61679 4
      vertex -2.83264 8.71802 4
      vertex -0.723816 1.53819 4
    endloop
  endfacet
  facet normal -0 0 1
    outer loop
      vertex -3.90297 8.29424 4
      vertex -0.723816 1.53819 4
      vertex -2.83264 8.71802 4
    endloop
  endfacet
  facet normal 0 0 1
    outer loop
      vertex -0.723816 1.53819 4
      vertex -3.90297 8.29424 4
      vertex -0.910904 1.43535 4
    endloop
  endfacet
  facet normal -0 0 1
    outer loop
      vertex -4.91174 7.73967 4
      vertex -0.910904 1.43535 4
      vertex -3.90297 8.29424 4
    endloop
  endfacet
  facet normal 0 0 1
    outer loop
      vertex -0.910904 1.43535 4
      vertex -4.91174 7.73967 4
      vertex -1.08362 1.30986 4
    endloop
  endfacet
  facet normal -0 0 1
    outer loop
      vertex -5.84305 7.06303 4
      vertex -1.08362 1.30986 4
      vertex -4.91174 7.73967 4
    endloop
  endfacet
  facet normal 0 0 1
    outer loop
      vertex -1.08362 1.30986 4
      vertex -5.84305 7.06303 4
      vertex -1.23924 1.16373 4
    endloop
  endfacet
  facet normal 0 0 1
    outer loop
      vertex -1.23924 1.16373 4
      vertex -6.68221 6.27501 4
      vertex -1.37532 0.999222 4
    endloop
  endfacet
  facet normal -0 0 1
    outer loop
      vertex -6.68221 6.27501 4
      vertex -1.23924 1.16373 4
      vertex -5.84305 7.06303 4
    endloop
  endfacet
  facet normal -0 0 1
    outer loop
      vertex 1.23924 -1.16373 4
      vertex 6.68221 -6.27501 4
      vertex 1.37532 -0.999222 4
    endloop
  endfacet
  facet normal 0 0 1
    outer loop
      vertex 6.68221 -6.27501 4
      vertex 1.23924 -1.16373 4
      vertex 5.84305 -7.06303 4
    endloop
  endfacet
  facet normal -0 0 1
    outer loop
      vertex 1.08362 -1.30986 4
      vertex 5.84305 -7.06303 4
      vertex 1.23924 -1.16373 4
    endloop
  endfacet
  facet normal 0 0 1
    outer loop
      vertex 5.84305 -7.06303 4
      vertex 1.08362 -1.30986 4
      vertex 4.91174 -7.73967 4
    endloop
  endfacet
  facet normal -0 0 1
    outer loop
      vertex 0.910904 -1.43535 4
      vertex 4.91174 -7.73967 4
      vertex 1.08362 -1.30986 4
    endloop
  endfacet
  facet normal 0 0 1
    outer loop
      vertex 4.91174 -7.73967 4
      vertex 0.910904 -1.43535 4
      vertex 3.90297 -8.29424 4
    endloop
  endfacet
  facet normal -0 0 1
    outer loop
      vertex 0.723816 -1.53819 4
      vertex 3.90297 -8.29424 4
      vertex 0.910904 -1.43535 4
    endloop
  endfacet
  facet normal 0 0 1
    outer loop
      vertex 3.90297 -8.29424 4
      vertex 0.723816 -1.53819 4
      vertex 2.83264 -8.71802 4
    endloop
  endfacet
  facet normal -0 0 1
    outer loop
      vertex 0.525314 -1.61679 4
      vertex 2.83264 -8.71802 4
      vertex 0.723816 -1.53819 4
    endloop
  endfacet
  facet normal 0 0 1
    outer loop
      vertex 2.83264 -8.71802 4
      vertex 0.525314 -1.61679 4
      vertex 1.71765 -9.00429 4
    endloop
  endfacet
  facet normal -0 0 1
    outer loop
      vertex 0.318542 -1.66988 4
      vertex 1.71765 -9.00429 4
      vertex 0.525314 -1.61679 4
    endloop
  endfacet
  facet normal 0 0 1
    outer loop
      vertex 1.71765 -9.00429 4
      vertex 0.318542 -1.66988 4
      vertex 0.575577 -9.14857 4
    endloop
  endfacet
  facet normal -0 0 1
    outer loop
      vertex 0.106735 -1.69664 4
      vertex 0.575577 -9.14857 4
      vertex 0.318542 -1.66988 4
    endloop
  endfacet
  facet normal -0 0 1
    outer loop
      vertex -0.106735 -1.69664 4
      vertex 0.575577 -9.14857 4
      vertex 0.106735 -1.69664 4
    endloop
  endfacet
  facet normal 0 0 1
    outer loop
      vertex -0.575577 -9.14857 4
      vertex -0.106735 -1.69664 4
      vertex -0.318542 -1.66988 4
    endloop
  endfacet
  facet normal 0 0 1
    outer loop
      vertex -1.71765 -9.00429 4
      vertex -0.318542 -1.66988 4
      vertex -0.525314 -1.61679 4
    endloop
  endfacet
  facet normal 0 0 1
    outer loop
      vertex -0.106735 -1.69664 4
      vertex -0.575577 -9.14857 4
      vertex 0.575577 -9.14857 4
    endloop
  endfacet
  facet normal 0 0 1
    outer loop
      vertex -2.83264 -8.71802 4
      vertex -0.525314 -1.61679 4
      vertex -0.723816 -1.53819 4
    endloop
  endfacet
  facet normal 0 0 1
    outer loop
      vertex -3.90297 -8.29424 4
      vertex -0.723816 -1.53819 4
      vertex -0.910904 -1.43535 4
    endloop
  endfacet
  facet normal 0 0 1
    outer loop
      vertex -4.91174 -7.73967 4
      vertex -0.910904 -1.43535 4
      vertex -1.08362 -1.30986 4
    endloop
  endfacet
  facet normal 0 0 1
    outer loop
      vertex -5.84305 -7.06303 4
      vertex -1.08362 -1.30986 4
      vertex -1.23924 -1.16373 4
    endloop
  endfacet
  facet normal 0 0 1
    outer loop
      vertex -6.68221 -6.27501 4
      vertex -1.23924 -1.16373 4
      vertex -1.37532 -0.999222 4
    endloop
  endfacet
  facet normal 0 0 1
    outer loop
      vertex -7.41599 -5.38803 4
      vertex -1.37532 -0.999222 4
      vertex -1.48972 -0.81897 4
    endloop
  endfacet
  facet normal 0 0 1
    outer loop
      vertex -8.03281 -4.41606 4
      vertex -1.48972 -0.81897 4
      vertex -1.58061 -0.625809 4
    endloop
  endfacet
  facet normal 0 0 1
    outer loop
      vertex -8.52295 -3.37447 4
      vertex -1.58061 -0.625809 4
      vertex -1.64659 -0.42276 4
    endloop
  endfacet
  facet normal 0 0 1
    outer loop
      vertex -8.87868 -2.27965 4
      vertex -1.64659 -0.42276 4
      vertex -1.68658 -0.213058 4
    endloop
  endfacet
  facet normal 0 0 1
    outer loop
      vertex -0.318542 -1.66988 4
      vertex -1.71765 -9.00429 4
      vertex -0.575577 -9.14857 4
    endloop
  endfacet
  facet normal 0 0 1
    outer loop
      vertex -9.09438 -1.14888 4
      vertex -1.68658 -0.213058 4
      vertex -1.7 0 4
    endloop
  endfacet
  facet normal -0 0 1
    outer loop
      vertex -7.41599 5.38803 4
      vertex -1.37532 0.999222 4
      vertex -6.68221 6.27501 4
    endloop
  endfacet
  facet normal 0 0 1
    outer loop
      vertex -1.37532 0.999222 4
      vertex -7.41599 5.38803 4
      vertex -1.48972 0.81897 4
    endloop
  endfacet
  facet normal 0 0 1
    outer loop
      vertex -0.525314 -1.61679 4
      vertex -2.83264 -8.71802 4
      vertex -1.71765 -9.00429 4
    endloop
  endfacet
  facet normal -0 0 1
    outer loop
      vertex -8.03281 4.41606 4
      vertex -1.48972 0.81897 4
      vertex -7.41599 5.38803 4
    endloop
  endfacet
  facet normal 0 0 1
    outer loop
      vertex -0.723816 -1.53819 4
      vertex -3.90297 -8.29424 4
      vertex -2.83264 -8.71802 4
    endloop
  endfacet
  facet normal 0 0 1
    outer loop
      vertex -1.48972 0.81897 4
      vertex -8.03281 4.41606 4
      vertex -1.58061 0.625809 4
    endloop
  endfacet
  facet normal 0 0 1
    outer loop
      vertex -0.910904 -1.43535 4
      vertex -4.91174 -7.73967 4
      vertex -3.90297 -8.29424 4
    endloop
  endfacet
  facet normal -0 0 1
    outer loop
      vertex -8.52295 3.37447 4
      vertex -1.58061 0.625809 4
      vertex -8.03281 4.41606 4
    endloop
  endfacet
  facet normal 0 0 1
    outer loop
      vertex -1.08362 -1.30986 4
      vertex -5.84305 -7.06303 4
      vertex -4.91174 -7.73967 4
    endloop
  endfacet
  facet normal 0 0 1
    outer loop
      vertex -1.58061 0.625809 4
      vertex -8.52295 3.37447 4
      vertex -1.64659 0.42276 4
    endloop
  endfacet
  facet normal 0 0 1
    outer loop
      vertex -1.23924 -1.16373 4
      vertex -6.68221 -6.27501 4
      vertex -5.84305 -7.06303 4
    endloop
  endfacet
  facet normal -0 0 1
    outer loop
      vertex -8.87868 2.27965 4
      vertex -1.64659 0.42276 4
      vertex -8.52295 3.37447 4
    endloop
  endfacet
  facet normal 0 0 1
    outer loop
      vertex -1.37532 -0.999222 4
      vertex -7.41599 -5.38803 4
      vertex -6.68221 -6.27501 4
    endloop
  endfacet
  facet normal 0 0 1
    outer loop
      vertex -1.64659 0.42276 4
      vertex -8.87868 2.27965 4
      vertex -1.68658 0.213058 4
    endloop
  endfacet
  facet normal 0 0 1
    outer loop
      vertex -1.48972 -0.81897 4
      vertex -8.03281 -4.41606 4
      vertex -7.41599 -5.38803 4
    endloop
  endfacet
  facet normal -0 0 1
    outer loop
      vertex -9.09438 1.14888 4
      vertex -1.68658 0.213058 4
      vertex -8.87868 2.27965 4
    endloop
  endfacet
  facet normal 0 0 1
    outer loop
      vertex -1.58061 -0.625809 4
      vertex -8.52295 -3.37447 4
      vertex -8.03281 -4.41606 4
    endloop
  endfacet
  facet normal 0 0 1
    outer loop
      vertex -1.68658 0.213058 4
      vertex -9.09438 1.14888 4
      vertex -1.7 0 4
    endloop
  endfacet
  facet normal 0 0 1
    outer loop
      vertex -1.64659 -0.42276 4
      vertex -8.87868 -2.27965 4
      vertex -8.52295 -3.37447 4
    endloop
  endfacet
  facet normal 0 0 1
    outer loop
      vertex -9.16666 0 4
      vertex -1.7 0 4
      vertex -9.09438 1.14888 4
    endloop
  endfacet
  facet normal 0 0 1
    outer loop
      vertex -1.68658 -0.213058 4
      vertex -9.09438 -1.14888 4
      vertex -8.87868 -2.27965 4
    endloop
  endfacet
  facet normal 0 0 1
    outer loop
      vertex -1.7 0 4
      vertex -9.16666 0 4
      vertex -9.09438 -1.14888 4
    endloop
  endfacet
  facet normal 0.248681 -0.968585 0
    outer loop
      vertex 1.71765 -9.00429 2
      vertex 2.83264 -8.71802 4
      vertex 1.71765 -9.00429 4
    endloop
  endfacet
  facet normal 0.248681 -0.968585 0
    outer loop
      vertex 2.83264 -8.71802 4
      vertex 1.71765 -9.00429 2
      vertex 2.83264 -8.71802 2
    endloop
  endfacet
  facet normal 0.368132 -0.929774 0
    outer loop
      vertex 2.83264 -8.71802 2
      vertex 3.90297 -8.29424 4
      vertex 2.83264 -8.71802 4
    endloop
  endfacet
  facet normal 0.368132 -0.929774 0
    outer loop
      vertex 3.90297 -8.29424 4
      vertex 2.83264 -8.71802 2
      vertex 3.90297 -8.29424 2
    endloop
  endfacet
  facet normal 0.481745 -0.876311 0
    outer loop
      vertex 3.90297 -8.29424 2
      vertex 4.91174 -7.73967 4
      vertex 3.90297 -8.29424 4
    endloop
  endfacet
  facet normal 0.481745 -0.876311 0
    outer loop
      vertex 4.91174 -7.73967 4
      vertex 3.90297 -8.29424 2
      vertex 4.91174 -7.73967 2
    endloop
  endfacet
  facet normal 0.587787 -0.809016 0
    outer loop
      vertex 4.91174 -7.73967 2
      vertex 5.84305 -7.06303 4
      vertex 4.91174 -7.73967 4
    endloop
  endfacet
  facet normal 0.587787 -0.809016 0
    outer loop
      vertex 5.84305 -7.06303 4
      vertex 4.91174 -7.73967 2
      vertex 5.84305 -7.06303 2
    endloop
  endfacet
  facet normal 0.684549 -0.728967 0
    outer loop
      vertex 5.84305 -7.06303 2
      vertex 6.68221 -6.27501 4
      vertex 5.84305 -7.06303 4
    endloop
  endfacet
  facet normal 0.684549 -0.728967 0
    outer loop
      vertex 6.68221 -6.27501 4
      vertex 5.84305 -7.06303 2
      vertex 6.68221 -6.27501 2
    endloop
  endfacet
  facet normal 0.77051 -0.637428 0
    outer loop
      vertex 6.68221 -6.27501 4
      vertex 7.41599 -5.38803 2
      vertex 7.41599 -5.38803 4
    endloop
  endfacet
  facet normal 0.77051 -0.637428 0
    outer loop
      vertex 7.41599 -5.38803 2
      vertex 6.68221 -6.27501 4
      vertex 6.68221 -6.27501 2
    endloop
  endfacet
  facet normal 0.844332 -0.535821 0
    outer loop
      vertex 7.41599 -5.38803 4
      vertex 8.03281 -4.41606 2
      vertex 8.03281 -4.41606 4
    endloop
  endfacet
  facet normal 0.844332 -0.535821 0
    outer loop
      vertex 8.03281 -4.41606 2
      vertex 7.41599 -5.38803 4
      vertex 7.41599 -5.38803 2
    endloop
  endfacet
  facet normal 0.904825 -0.425783 0
    outer loop
      vertex 8.03281 -4.41606 4
      vertex 8.52295 -3.37447 2
      vertex 8.52295 -3.37447 4
    endloop
  endfacet
  facet normal 0.904825 -0.425783 0
    outer loop
      vertex 8.52295 -3.37447 2
      vertex 8.03281 -4.41606 4
      vertex 8.03281 -4.41606 2
    endloop
  endfacet
  facet normal 0.951056 -0.309017 0
    outer loop
      vertex 8.52295 -3.37447 4
      vertex 8.87868 -2.27965 2
      vertex 8.87868 -2.27965 4
    endloop
  endfacet
  facet normal 0.951056 -0.309017 0
    outer loop
      vertex 8.87868 -2.27965 2
      vertex 8.52295 -3.37447 4
      vertex 8.52295 -3.37447 2
    endloop
  endfacet
  facet normal 0.982288 -0.187375 0
    outer loop
      vertex 8.87868 -2.27965 4
      vertex 9.09438 -1.14888 2
      vertex 9.09438 -1.14888 4
    endloop
  endfacet
  facet normal 0.982288 -0.187375 0
    outer loop
      vertex 9.09438 -1.14888 2
      vertex 8.87868 -2.27965 4
      vertex 8.87868 -2.27965 2
    endloop
  endfacet
  facet normal 0.998027 -0.0627901 0
    outer loop
      vertex 9.09438 -1.14888 4
      vertex 9.16666 0 2
      vertex 9.16666 0 4
    endloop
  endfacet
  facet normal 0.998027 -0.0627901 0
    outer loop
      vertex 9.16666 0 2
      vertex 9.09438 -1.14888 4
      vertex 9.09438 -1.14888 2
    endloop
  endfacet
  facet normal 0.998027 0.0627901 0
    outer loop
      vertex 9.16666 0 4
      vertex 9.09438 1.14888 2
      vertex 9.09438 1.14888 4
    endloop
  endfacet
  facet normal 0.998027 0.0627901 0
    outer loop
      vertex 9.09438 1.14888 2
      vertex 9.16666 0 4
      vertex 9.16666 0 2
    endloop
  endfacet
  facet normal 0.982288 0.187375 0
    outer loop
      vertex 9.09438 1.14888 4
      vertex 8.87868 2.27965 2
      vertex 8.87868 2.27965 4
    endloop
  endfacet
  facet normal 0.982288 0.187375 0
    outer loop
      vertex 8.87868 2.27965 2
      vertex 9.09438 1.14888 4
      vertex 9.09438 1.14888 2
    endloop
  endfacet
  facet normal 0.951056 0.309017 0
    outer loop
      vertex 8.87868 2.27965 4
      vertex 8.52295 3.37447 2
      vertex 8.52295 3.37447 4
    endloop
  endfacet
  facet normal 0.951056 0.309017 0
    outer loop
      vertex 8.52295 3.37447 2
      vertex 8.87868 2.27965 4
      vertex 8.87868 2.27965 2
    endloop
  endfacet
  facet normal 0.904825 0.425783 0
    outer loop
      vertex 8.52295 3.37447 4
      vertex 8.03281 4.41606 2
      vertex 8.03281 4.41606 4
    endloop
  endfacet
  facet normal 0.904825 0.425783 0
    outer loop
      vertex 8.03281 4.41606 2
      vertex 8.52295 3.37447 4
      vertex 8.52295 3.37447 2
    endloop
  endfacet
  facet normal 0.844332 0.535821 0
    outer loop
      vertex 8.03281 4.41606 4
      vertex 7.41599 5.38803 2
      vertex 7.41599 5.38803 4
    endloop
  endfacet
  facet normal 0.844332 0.535821 0
    outer loop
      vertex 7.41599 5.38803 2
      vertex 8.03281 4.41606 4
      vertex 8.03281 4.41606 2
    endloop
  endfacet
  facet normal 0.77051 0.637428 0
    outer loop
      vertex 7.41599 5.38803 4
      vertex 6.68221 6.27501 2
      vertex 6.68221 6.27501 4
    endloop
  endfacet
  facet normal 0.77051 0.637428 0
    outer loop
      vertex 6.68221 6.27501 2
      vertex 7.41599 5.38803 4
      vertex 7.41599 5.38803 2
    endloop
  endfacet
  facet normal 0.684549 0.728967 -0
    outer loop
      vertex 6.68221 6.27501 2
      vertex 5.84305 7.06303 4
      vertex 6.68221 6.27501 4
    endloop
  endfacet
  facet normal 0.684549 0.728967 0
    outer loop
      vertex 5.84305 7.06303 4
      vertex 6.68221 6.27501 2
      vertex 5.84305 7.06303 2
    endloop
  endfacet
  facet normal 0.587787 0.809016 -0
    outer loop
      vertex 5.84305 7.06303 2
      vertex 4.91174 7.73967 4
      vertex 5.84305 7.06303 4
    endloop
  endfacet
  facet normal 0.587787 0.809016 0
    outer loop
      vertex 4.91174 7.73967 4
      vertex 5.84305 7.06303 2
      vertex 4.91174 7.73967 2
    endloop
  endfacet
  facet normal 0.481745 0.876311 -0
    outer loop
      vertex 4.91174 7.73967 2
      vertex 3.90297 8.29424 4
      vertex 4.91174 7.73967 4
    endloop
  endfacet
  facet normal 0.481745 0.876311 0
    outer loop
      vertex 3.90297 8.29424 4
      vertex 4.91174 7.73967 2
      vertex 3.90297 8.29424 2
    endloop
  endfacet
  facet normal 0.368132 0.929774 -0
    outer loop
      vertex 3.90297 8.29424 2
      vertex 2.83264 8.71802 4
      vertex 3.90297 8.29424 4
    endloop
  endfacet
  facet normal 0.368132 0.929774 0
    outer loop
      vertex 2.83264 8.71802 4
      vertex 3.90297 8.29424 2
      vertex 2.83264 8.71802 2
    endloop
  endfacet
  facet normal 0.248681 0.968585 -0
    outer loop
      vertex 2.83264 8.71802 2
      vertex 1.71765 9.00429 4
      vertex 2.83264 8.71802 4
    endloop
  endfacet
  facet normal 0.248681 0.968585 0
    outer loop
      vertex 1.71765 9.00429 4
      vertex 2.83264 8.71802 2
      vertex 1.71765 9.00429 2
    endloop
  endfacet
  facet normal 0.125341 0.992114 -0
    outer loop
      vertex 1.71765 9.00429 2
      vertex 0.575577 9.14857 4
      vertex 1.71765 9.00429 4
    endloop
  endfacet
  facet normal 0.125341 0.992114 0
    outer loop
      vertex 0.575577 9.14857 4
      vertex 1.71765 9.00429 2
      vertex 0.575577 9.14857 2
    endloop
  endfacet
  facet normal 0 1 -0
    outer loop
      vertex 0.575577 9.14857 2
      vertex -0.575577 9.14857 4
      vertex 0.575577 9.14857 4
    endloop
  endfacet
  facet normal 0 1 0
    outer loop
      vertex -0.575577 9.14857 4
      vertex 0.575577 9.14857 2
      vertex -0.575577 9.14857 2
    endloop
  endfacet
  facet normal -0.125341 0.992114 0
    outer loop
      vertex -0.575577 9.14857 2
      vertex -1.71765 9.00429 4
      vertex -0.575577 9.14857 4
    endloop
  endfacet
  facet normal -0.125341 0.992114 0
    outer loop
      vertex -1.71765 9.00429 4
      vertex -0.575577 9.14857 2
      vertex -1.71765 9.00429 2
    endloop
  endfacet
  facet normal -0.248681 0.968585 0
    outer loop
      vertex -1.71765 9.00429 2
      vertex -2.83264 8.71802 4
      vertex -1.71765 9.00429 4
    endloop
  endfacet
  facet normal -0.248681 0.968585 0
    outer loop
      vertex -2.83264 8.71802 4
      vertex -1.71765 9.00429 2
      vertex -2.83264 8.71802 2
    endloop
  endfacet
  facet normal -0.368132 0.929774 0
    outer loop
      vertex -2.83264 8.71802 2
      vertex -3.90297 8.29424 4
      vertex -2.83264 8.71802 4
    endloop
  endfacet
  facet normal -0.368132 0.929774 0
    outer loop
      vertex -3.90297 8.29424 4
      vertex -2.83264 8.71802 2
      vertex -3.90297 8.29424 2
    endloop
  endfacet
  facet normal -0.481745 0.876311 0
    outer loop
      vertex -3.90297 8.29424 2
      vertex -4.91174 7.73967 4
      vertex -3.90297 8.29424 4
    endloop
  endfacet
  facet normal -0.481745 0.876311 0
    outer loop
      vertex -4.91174 7.73967 4
      vertex -3.90297 8.29424 2
      vertex -4.91174 7.73967 2
    endloop
  endfacet
  facet normal -0.587787 0.809016 0
    outer loop
      vertex -4.91174 7.73967 2
      vertex -5.84305 7.06303 4
      vertex -4.91174 7.73967 4
    endloop
  endfacet
  facet normal -0.587787 0.809016 0
    outer loop
      vertex -5.84305 7.06303 4
      vertex -4.91174 7.73967 2
      vertex -5.84305 7.06303 2
    endloop
  endfacet
  facet normal -0.684549 0.728967 0
    outer loop
      vertex -5.84305 7.06303 2
      vertex -6.68221 6.27501 4
      vertex -5.84305 7.06303 4
    endloop
  endfacet
  facet normal -0.684549 0.728967 0
    outer loop
      vertex -6.68221 6.27501 4
      vertex -5.84305 7.06303 2
      vertex -6.68221 6.27501 2
    endloop
  endfacet
  facet normal -0.77051 0.637428 0
    outer loop
      vertex -7.41599 5.38803 2
      vertex -6.68221 6.27501 4
      vertex -6.68221 6.27501 2
    endloop
  endfacet
  facet normal -0.77051 0.637428 0
    outer loop
      vertex -6.68221 6.27501 4
      vertex -7.41599 5.38803 2
      vertex -7.41599 5.38803 4
    endloop
  endfacet
  facet normal -0.844332 0.535821 0
    outer loop
      vertex -8.03281 4.41606 2
      vertex -7.41599 5.38803 4
      vertex -7.41599 5.38803 2
    endloop
  endfacet
  facet normal -0.844332 0.535821 0
    outer loop
      vertex -7.41599 5.38803 4
      vertex -8.03281 4.41606 2
      vertex -8.03281 4.41606 4
    endloop
  endfacet
  facet normal -0.904825 0.425783 0
    outer loop
      vertex -8.52295 3.37447 2
      vertex -8.03281 4.41606 4
      vertex -8.03281 4.41606 2
    endloop
  endfacet
  facet normal -0.904825 0.425783 0
    outer loop
      vertex -8.03281 4.41606 4
      vertex -8.52295 3.37447 2
      vertex -8.52295 3.37447 4
    endloop
  endfacet
  facet normal -0.951056 0.309017 0
    outer loop
      vertex -8.87868 2.27965 2
      vertex -8.52295 3.37447 4
      vertex -8.52295 3.37447 2
    endloop
  endfacet
  facet normal -0.951056 0.309017 0
    outer loop
      vertex -8.52295 3.37447 4
      vertex -8.87868 2.27965 2
      vertex -8.87868 2.27965 4
    endloop
  endfacet
  facet normal -0.982288 0.187375 0
    outer loop
      vertex -9.09438 1.14888 2
      vertex -8.87868 2.27965 4
      vertex -8.87868 2.27965 2
    endloop
  endfacet
  facet normal -0.982288 0.187375 0
    outer loop
      vertex -8.87868 2.27965 4
      vertex -9.09438 1.14888 2
      vertex -9.09438 1.14888 4
    endloop
  endfacet
  facet normal -0.998027 0.0627901 0
    outer loop
      vertex -9.16666 0 2
      vertex -9.09438 1.14888 4
      vertex -9.09438 1.14888 2
    endloop
  endfacet
  facet normal -0.998027 0.0627901 0
    outer loop
      vertex -9.09438 1.14888 4
      vertex -9.16666 0 2
      vertex -9.16666 0 4
    endloop
  endfacet
  facet normal -0.998027 -0.0627901 0
    outer loop
      vertex -9.09438 -1.14888 2
      vertex -9.16666 0 4
      vertex -9.16666 0 2
    endloop
  endfacet
  facet normal -0.998027 -0.0627901 0
    outer loop
      vertex -9.16666 0 4
      vertex -9.09438 -1.14888 2
      vertex -9.09438 -1.14888 4
    endloop
  endfacet
  facet normal -0.982288 -0.187375 0
    outer loop
      vertex -8.87868 -2.27965 2
      vertex -9.09438 -1.14888 4
      vertex -9.09438 -1.14888 2
    endloop
  endfacet
  facet normal -0.982288 -0.187375 0
    outer loop
      vertex -9.09438 -1.14888 4
      vertex -8.87868 -2.27965 2
      vertex -8.87868 -2.27965 4
    endloop
  endfacet
  facet normal -0.951056 -0.309017 0
    outer loop
      vertex -8.52295 -3.37447 2
      vertex -8.87868 -2.27965 4
      vertex -8.87868 -2.27965 2
    endloop
  endfacet
  facet normal -0.951056 -0.309017 0
    outer loop
      vertex -8.87868 -2.27965 4
      vertex -8.52295 -3.37447 2
      vertex -8.52295 -3.37447 4
    endloop
  endfacet
  facet normal -0.904825 -0.425783 0
    outer loop
      vertex -8.03281 -4.41606 2
      vertex -8.52295 -3.37447 4
      vertex -8.52295 -3.37447 2
    endloop
  endfacet
  facet normal -0.904825 -0.425783 0
    outer loop
      vertex -8.52295 -3.37447 4
      vertex -8.03281 -4.41606 2
      vertex -8.03281 -4.41606 4
    endloop
  endfacet
  facet normal -0.844332 -0.535821 0
    outer loop
      vertex -7.41599 -5.38803 2
      vertex -8.03281 -4.41606 4
      vertex -8.03281 -4.41606 2
    endloop
  endfacet
  facet normal -0.844332 -0.535821 0
    outer loop
      vertex -8.03281 -4.41606 4
      vertex -7.41599 -5.38803 2
      vertex -7.41599 -5.38803 4
    endloop
  endfacet
  facet normal -0.77051 -0.637428 0
    outer loop
      vertex -6.68221 -6.27501 2
      vertex -7.41599 -5.38803 4
      vertex -7.41599 -5.38803 2
    endloop
  endfacet
  facet normal -0.77051 -0.637428 0
    outer loop
      vertex -7.41599 -5.38803 4
      vertex -6.68221 -6.27501 2
      vertex -6.68221 -6.27501 4
    endloop
  endfacet
  facet normal -0.684549 -0.728967 0
    outer loop
      vertex -6.68221 -6.27501 2
      vertex -5.84305 -7.06303 4
      vertex -6.68221 -6.27501 4
    endloop
  endfacet
  facet normal -0.684549 -0.728967 -0
    outer loop
      vertex -5.84305 -7.06303 4
      vertex -6.68221 -6.27501 2
      vertex -5.84305 -7.06303 2
    endloop
  endfacet
  facet normal -0.587787 -0.809016 0
    outer loop
      vertex -5.84305 -7.06303 2
      vertex -4.91174 -7.73967 4
      vertex -5.84305 -7.06303 4
    endloop
  endfacet
  facet normal -0.587787 -0.809016 -0
    outer loop
      vertex -4.91174 -7.73967 4
      vertex -5.84305 -7.06303 2
      vertex -4.91174 -7.73967 2
    endloop
  endfacet
  facet normal -0.481745 -0.876311 0
    outer loop
      vertex -4.91174 -7.73967 2
      vertex -3.90297 -8.29424 4
      vertex -4.91174 -7.73967 4
    endloop
  endfacet
  facet normal -0.481745 -0.876311 -0
    outer loop
      vertex -3.90297 -8.29424 4
      vertex -4.91174 -7.73967 2
      vertex -3.90297 -8.29424 2
    endloop
  endfacet
  facet normal -0.368132 -0.929774 0
    outer loop
      vertex -3.90297 -8.29424 2
      vertex -2.83264 -8.71802 4
      vertex -3.90297 -8.29424 4
    endloop
  endfacet
  facet normal -0.368132 -0.929774 -0
    outer loop
      vertex -2.83264 -8.71802 4
      vertex -3.90297 -8.29424 2
      vertex -2.83264 -8.71802 2
    endloop
  endfacet
  facet normal -0.248681 -0.968585 0
    outer loop
      vertex -2.83264 -8.71802 2
      vertex -1.71765 -9.00429 4
      vertex -2.83264 -8.71802 4
    endloop
  endfacet
  facet normal -0.248681 -0.968585 -0
    outer loop
      vertex -1.71765 -9.00429 4
      vertex -2.83264 -8.71802 2
      vertex -1.71765 -9.00429 2
    endloop
  endfacet
  facet normal -0.125341 -0.992114 0
    outer loop
      vertex -1.71765 -9.00429 2
      vertex -0.575577 -9.14857 4
      vertex -1.71765 -9.00429 4
    endloop
  endfacet
  facet normal -0.125341 -0.992114 -0
    outer loop
      vertex -0.575577 -9.14857 4
      vertex -1.71765 -9.00429 2
      vertex -0.575577 -9.14857 2
    endloop
  endfacet
  facet normal 0 -1 0
    outer loop
      vertex -0.575577 -9.14857 2
      vertex 0.575577 -9.14857 4
      vertex -0.575577 -9.14857 4
    endloop
  endfacet
  facet normal 0 -1 -0
    outer loop
      vertex 0.575577 -9.14857 4
      vertex -0.575577 -9.14857 2
      vertex 0.575577 -9.14857 2
    endloop
  endfacet
  facet normal 0.125341 -0.992114 0
    outer loop
      vertex 0.575577 -9.14857 2
      vertex 1.71765 -9.00429 4
      vertex 0.575577 -9.14857 4
    endloop
  endfacet
  facet normal 0.125341 -0.992114 0
    outer loop
      vertex 1.71765 -9.00429 4
      vertex 0.575577 -9.14857 2
      vertex 1.71765 -9.00429 2
    endloop
  endfacet
  facet normal 0.125363 0.992111 -0
    outer loop
      vertex -0.106735 -1.69664 0
      vertex -0.318542 -1.66988 4
      vertex -0.106735 -1.69664 4
    endloop
  endfacet
  facet normal 0.125363 0.992111 0
    outer loop
      vertex -0.318542 -1.66988 4
      vertex -0.106735 -1.69664 0
      vertex -0.318542 -1.66988 0
    endloop
  endfacet
  facet normal 0.248669 0.968588 -0
    outer loop
      vertex -0.318542 -1.66988 0
      vertex -0.525314 -1.61679 4
      vertex -0.318542 -1.66988 4
    endloop
  endfacet
  facet normal 0.248669 0.968588 0
    outer loop
      vertex -0.525314 -1.61679 4
      vertex -0.318542 -1.66988 0
      vertex -0.525314 -1.61679 0
    endloop
  endfacet
  facet normal 0.368148 0.929767 -0
    outer loop
      vertex -0.525314 -1.61679 0
      vertex -0.723816 -1.53819 4
      vertex -0.525314 -1.61679 4
    endloop
  endfacet
  facet normal 0.368148 0.929767 0
    outer loop
      vertex -0.723816 -1.53819 4
      vertex -0.525314 -1.61679 0
      vertex -0.723816 -1.53819 0
    endloop
  endfacet
  facet normal 0.481724 0.876323 -0
    outer loop
      vertex -0.723816 -1.53819 0
      vertex -0.910904 -1.43535 4
      vertex -0.723816 -1.53819 4
    endloop
  endfacet
  facet normal 0.481724 0.876323 0
    outer loop
      vertex -0.910904 -1.43535 4
      vertex -0.723816 -1.53819 0
      vertex -0.910904 -1.43535 0
    endloop
  endfacet
  facet normal 0.587798 0.809008 -0
    outer loop
      vertex -0.910904 -1.43535 0
      vertex -1.08362 -1.30986 4
      vertex -0.910904 -1.43535 4
    endloop
  endfacet
  facet normal 0.587798 0.809008 0
    outer loop
      vertex -1.08362 -1.30986 4
      vertex -0.910904 -1.43535 0
      vertex -1.08362 -1.30986 0
    endloop
  endfacet
  facet normal 0.684528 0.728986 -0
    outer loop
      vertex -1.08362 -1.30986 0
      vertex -1.23924 -1.16373 4
      vertex -1.08362 -1.30986 4
    endloop
  endfacet
  facet normal 0.684528 0.728986 0
    outer loop
      vertex -1.23924 -1.16373 4
      vertex -1.08362 -1.30986 0
      vertex -1.23924 -1.16373 0
    endloop
  endfacet
  facet normal 0.770542 0.637389 0
    outer loop
      vertex -1.23924 -1.16373 4
      vertex -1.37532 -0.999222 0
      vertex -1.37532 -0.999222 4
    endloop
  endfacet
  facet normal 0.770542 0.637389 0
    outer loop
      vertex -1.37532 -0.999222 0
      vertex -1.23924 -1.16373 4
      vertex -1.23924 -1.16373 0
    endloop
  endfacet
  facet normal 0.84432 0.535839 0
    outer loop
      vertex -1.37532 -0.999222 4
      vertex -1.48972 -0.81897 0
      vertex -1.48972 -0.81897 4
    endloop
  endfacet
  facet normal 0.84432 0.535839 0
    outer loop
      vertex -1.48972 -0.81897 0
      vertex -1.37532 -0.999222 4
      vertex -1.37532 -0.999222 0
    endloop
  endfacet
  facet normal 0.904824 0.425787 0
    outer loop
      vertex -1.48972 -0.81897 4
      vertex -1.58061 -0.625809 0
      vertex -1.58061 -0.625809 4
    endloop
  endfacet
  facet normal 0.904824 0.425787 0
    outer loop
      vertex -1.58061 -0.625809 0
      vertex -1.48972 -0.81897 4
      vertex -1.48972 -0.81897 0
    endloop
  endfacet
  facet normal 0.95105 0.309036 0
    outer loop
      vertex -1.58061 -0.625809 4
      vertex -1.64659 -0.42276 0
      vertex -1.64659 -0.42276 4
    endloop
  endfacet
  facet normal 0.95105 0.309036 0
    outer loop
      vertex -1.64659 -0.42276 0
      vertex -1.58061 -0.625809 4
      vertex -1.58061 -0.625809 0
    endloop
  endfacet
  facet normal 0.982295 0.187339 0
    outer loop
      vertex -1.64659 -0.42276 4
      vertex -1.68658 -0.213058 0
      vertex -1.68658 -0.213058 4
    endloop
  endfacet
  facet normal 0.982295 0.187339 0
    outer loop
      vertex -1.68658 -0.213058 0
      vertex -1.64659 -0.42276 4
      vertex -1.64659 -0.42276 0
    endloop
  endfacet
  facet normal 0.998024 0.0628277 0
    outer loop
      vertex -1.68658 -0.213058 4
      vertex -1.7 0 0
      vertex -1.7 0 4
    endloop
  endfacet
  facet normal 0.998024 0.0628277 0
    outer loop
      vertex -1.7 0 0
      vertex -1.68658 -0.213058 4
      vertex -1.68658 -0.213058 0
    endloop
  endfacet
  facet normal 0.998024 -0.0628277 0
    outer loop
      vertex -1.7 0 4
      vertex -1.68658 0.213058 0
      vertex -1.68658 0.213058 4
    endloop
  endfacet
  facet normal 0.998024 -0.0628277 0
    outer loop
      vertex -1.68658 0.213058 0
      vertex -1.7 0 4
      vertex -1.7 0 0
    endloop
  endfacet
  facet normal 0.982295 -0.187339 0
    outer loop
      vertex -1.68658 0.213058 4
      vertex -1.64659 0.42276 0
      vertex -1.64659 0.42276 4
    endloop
  endfacet
  facet normal 0.982295 -0.187339 0
    outer loop
      vertex -1.64659 0.42276 0
      vertex -1.68658 0.213058 4
      vertex -1.68658 0.213058 0
    endloop
  endfacet
  facet normal 0.95105 -0.309036 0
    outer loop
      vertex -1.64659 0.42276 4
      vertex -1.58061 0.625809 0
      vertex -1.58061 0.625809 4
    endloop
  endfacet
  facet normal 0.95105 -0.309036 0
    outer loop
      vertex -1.58061 0.625809 0
      vertex -1.64659 0.42276 4
      vertex -1.64659 0.42276 0
    endloop
  endfacet
  facet normal 0.904824 -0.425787 0
    outer loop
      vertex -1.58061 0.625809 4
      vertex -1.48972 0.81897 0
      vertex -1.48972 0.81897 4
    endloop
  endfacet
  facet normal 0.904824 -0.425787 0
    outer loop
      vertex -1.48972 0.81897 0
      vertex -1.58061 0.625809 4
      vertex -1.58061 0.625809 0
    endloop
  endfacet
  facet normal 0.84432 -0.535839 0
    outer loop
      vertex -1.48972 0.81897 4
      vertex -1.37532 0.999222 0
      vertex -1.37532 0.999222 4
    endloop
  endfacet
  facet normal 0.84432 -0.535839 0
    outer loop
      vertex -1.37532 0.999222 0
      vertex -1.48972 0.81897 4
      vertex -1.48972 0.81897 0
    endloop
  endfacet
  facet normal 0.770542 -0.637389 0
    outer loop
      vertex -1.37532 0.999222 4
      vertex -1.23924 1.16373 0
      vertex -1.23924 1.16373 4
    endloop
  endfacet
  facet normal 0.770542 -0.637389 0
    outer loop
      vertex -1.23924 1.16373 0
      vertex -1.37532 0.999222 4
      vertex -1.37532 0.999222 0
    endloop
  endfacet
  facet normal 0.684528 -0.728986 0
    outer loop
      vertex -1.23924 1.16373 0
      vertex -1.08362 1.30986 4
      vertex -1.23924 1.16373 4
    endloop
  endfacet
  facet normal 0.684528 -0.728986 0
    outer loop
      vertex -1.08362 1.30986 4
      vertex -1.23924 1.16373 0
      vertex -1.08362 1.30986 0
    endloop
  endfacet
  facet normal 0.587798 -0.809008 0
    outer loop
      vertex -1.08362 1.30986 0
      vertex -0.910904 1.43535 4
      vertex -1.08362 1.30986 4
    endloop
  endfacet
  facet normal 0.587798 -0.809008 0
    outer loop
      vertex -0.910904 1.43535 4
      vertex -1.08362 1.30986 0
      vertex -0.910904 1.43535 0
    endloop
  endfacet
  facet normal 0.481724 -0.876323 0
    outer loop
      vertex -0.910904 1.43535 0
      vertex -0.723816 1.53819 4
      vertex -0.910904 1.43535 4
    endloop
  endfacet
  facet normal 0.481724 -0.876323 0
    outer loop
      vertex -0.723816 1.53819 4
      vertex -0.910904 1.43535 0
      vertex -0.723816 1.53819 0
    endloop
  endfacet
  facet normal 0.368148 -0.929767 0
    outer loop
      vertex -0.723816 1.53819 0
      vertex -0.525314 1.61679 4
      vertex -0.723816 1.53819 4
    endloop
  endfacet
  facet normal 0.368148 -0.929767 0
    outer loop
      vertex -0.525314 1.61679 4
      vertex -0.723816 1.53819 0
      vertex -0.525314 1.61679 0
    endloop
  endfacet
  facet normal 0.248669 -0.968588 0
    outer loop
      vertex -0.525314 1.61679 0
      vertex -0.318542 1.66988 4
      vertex -0.525314 1.61679 4
    endloop
  endfacet
  facet normal 0.248669 -0.968588 0
    outer loop
      vertex -0.318542 1.66988 4
      vertex -0.525314 1.61679 0
      vertex -0.318542 1.66988 0
    endloop
  endfacet
  facet normal 0.125363 -0.992111 0
    outer loop
      vertex -0.318542 1.66988 0
      vertex -0.106735 1.69664 4
      vertex -0.318542 1.66988 4
    endloop
  endfacet
  facet normal 0.125363 -0.992111 0
    outer loop
      vertex -0.106735 1.69664 4
      vertex -0.318542 1.66988 0
      vertex -0.106735 1.69664 0
    endloop
  endfacet
  facet normal 0 -1 0
    outer loop
      vertex -0.106735 1.69664 0
      vertex 0.106735 1.69664 4
      vertex -0.106735 1.69664 4
    endloop
  endfacet
  facet normal 0 -1 -0
    outer loop
      vertex 0.106735 1.69664 4
      vertex -0.106735 1.69664 0
      vertex 0.106735 1.69664 0
    endloop
  endfacet
  facet normal -0.125363 -0.992111 0
    outer loop
      vertex 0.106735 1.69664 0
      vertex 0.318542 1.66988 4
      vertex 0.106735 1.69664 4
    endloop
  endfacet
  facet normal -0.125363 -0.992111 -0
    outer loop
      vertex 0.318542 1.66988 4
      vertex 0.106735 1.69664 0
      vertex 0.318542 1.66988 0
    endloop
  endfacet
  facet normal -0.248669 -0.968588 0
    outer loop
      vertex 0.318542 1.66988 0
      vertex 0.525314 1.61679 4
      vertex 0.318542 1.66988 4
    endloop
  endfacet
  facet normal -0.248669 -0.968588 -0
    outer loop
      vertex 0.525314 1.61679 4
      vertex 0.318542 1.66988 0
      vertex 0.525314 1.61679 0
    endloop
  endfacet
  facet normal -0.368148 -0.929767 0
    outer loop
      vertex 0.525314 1.61679 0
      vertex 0.723816 1.53819 4
      vertex 0.525314 1.61679 4
    endloop
  endfacet
  facet normal -0.368148 -0.929767 -0
    outer loop
      vertex 0.723816 1.53819 4
      vertex 0.525314 1.61679 0
      vertex 0.723816 1.53819 0
    endloop
  endfacet
  facet normal -0.481724 -0.876323 0
    outer loop
      vertex 0.723816 1.53819 0
      vertex 0.910904 1.43535 4
      vertex 0.723816 1.53819 4
    endloop
  endfacet
  facet normal -0.481724 -0.876323 -0
    outer loop
      vertex 0.910904 1.43535 4
      vertex 0.723816 1.53819 0
      vertex 0.910904 1.43535 0
    endloop
  endfacet
  facet normal -0.587798 -0.809008 0
    outer loop
      vertex 0.910904 1.43535 0
      vertex 1.08362 1.30986 4
      vertex 0.910904 1.43535 4
    endloop
  endfacet
  facet normal -0.587798 -0.809008 -0
    outer loop
      vertex 1.08362 1.30986 4
      vertex 0.910904 1.43535 0
      vertex 1.08362 1.30986 0
    endloop
  endfacet
  facet normal -0.684528 -0.728986 0
    outer loop
      vertex 1.08362 1.30986 0
      vertex 1.23924 1.16373 4
      vertex 1.08362 1.30986 4
    endloop
  endfacet
  facet normal -0.684528 -0.728986 -0
    outer loop
      vertex 1.23924 1.16373 4
      vertex 1.08362 1.30986 0
      vertex 1.23924 1.16373 0
    endloop
  endfacet
  facet normal -0.770542 -0.637389 0
    outer loop
      vertex 1.37532 0.999222 0
      vertex 1.23924 1.16373 4
      vertex 1.23924 1.16373 0
    endloop
  endfacet
  facet normal -0.770542 -0.637389 0
    outer loop
      vertex 1.23924 1.16373 4
      vertex 1.37532 0.999222 0
      vertex 1.37532 0.999222 4
    endloop
  endfacet
  facet normal -0.84432 -0.535839 0
    outer loop
      vertex 1.48972 0.81897 0
      vertex 1.37532 0.999222 4
      vertex 1.37532 0.999222 0
    endloop
  endfacet
  facet normal -0.84432 -0.535839 0
    outer loop
      vertex 1.37532 0.999222 4
      vertex 1.48972 0.81897 0
      vertex 1.48972 0.81897 4
    endloop
  endfacet
  facet normal -0.904824 -0.425787 0
    outer loop
      vertex 1.58061 0.625809 0
      vertex 1.48972 0.81897 4
      vertex 1.48972 0.81897 0
    endloop
  endfacet
  facet normal -0.904824 -0.425787 0
    outer loop
      vertex 1.48972 0.81897 4
      vertex 1.58061 0.625809 0
      vertex 1.58061 0.625809 4
    endloop
  endfacet
  facet normal -0.95105 -0.309036 0
    outer loop
      vertex 1.64659 0.42276 0
      vertex 1.58061 0.625809 4
      vertex 1.58061 0.625809 0
    endloop
  endfacet
  facet normal -0.95105 -0.309036 0
    outer loop
      vertex 1.58061 0.625809 4
      vertex 1.64659 0.42276 0
      vertex 1.64659 0.42276 4
    endloop
  endfacet
  facet normal -0.982295 -0.187339 0
    outer loop
      vertex 1.68658 0.213058 0
      vertex 1.64659 0.42276 4
      vertex 1.64659 0.42276 0
    endloop
  endfacet
  facet normal -0.982295 -0.187339 0
    outer loop
      vertex 1.64659 0.42276 4
      vertex 1.68658 0.213058 0
      vertex 1.68658 0.213058 4
    endloop
  endfacet
  facet normal -0.998024 -0.0628277 0
    outer loop
      vertex 1.7 0 0
      vertex 1.68658 0.213058 4
      vertex 1.68658 0.213058 0
    endloop
  endfacet
  facet normal -0.998024 -0.0628277 0
    outer loop
      vertex 1.68658 0.213058 4
      vertex 1.7 0 0
      vertex 1.7 0 4
    endloop
  endfacet
  facet normal -0.998024 0.0628277 0
    outer loop
      vertex 1.68658 -0.213058 0
      vertex 1.7 0 4
      vertex 1.7 0 0
    endloop
  endfacet
  facet normal -0.998024 0.0628277 0
    outer loop
      vertex 1.7 0 4
      vertex 1.68658 -0.213058 0
      vertex 1.68658 -0.213058 4
    endloop
  endfacet
  facet normal -0.982295 0.187339 0
    outer loop
      vertex 1.64659 -0.42276 0
      vertex 1.68658 -0.213058 4
      vertex 1.68658 -0.213058 0
    endloop
  endfacet
  facet normal -0.982295 0.187339 0
    outer loop
      vertex 1.68658 -0.213058 4
      vertex 1.64659 -0.42276 0
      vertex 1.64659 -0.42276 4
    endloop
  endfacet
  facet normal -0.95105 0.309036 0
    outer loop
      vertex 1.58061 -0.625809 0
      vertex 1.64659 -0.42276 4
      vertex 1.64659 -0.42276 0
    endloop
  endfacet
  facet normal -0.95105 0.309036 0
    outer loop
      vertex 1.64659 -0.42276 4
      vertex 1.58061 -0.625809 0
      vertex 1.58061 -0.625809 4
    endloop
  endfacet
  facet normal -0.904824 0.425787 0
    outer loop
      vertex 1.48972 -0.81897 0
      vertex 1.58061 -0.625809 4
      vertex 1.58061 -0.625809 0
    endloop
  endfacet
  facet normal -0.904824 0.425787 0
    outer loop
      vertex 1.58061 -0.625809 4
      vertex 1.48972 -0.81897 0
      vertex 1.48972 -0.81897 4
    endloop
  endfacet
  facet normal -0.84432 0.535839 0
    outer loop
      vertex 1.37532 -0.999222 0
      vertex 1.48972 -0.81897 4
      vertex 1.48972 -0.81897 0
    endloop
  endfacet
  facet normal -0.84432 0.535839 0
    outer loop
      vertex 1.48972 -0.81897 4
      vertex 1.37532 -0.999222 0
      vertex 1.37532 -0.999222 4
    endloop
  endfacet
  facet normal -0.770542 0.637389 0
    outer loop
      vertex 1.23924 -1.16373 0
      vertex 1.37532 -0.999222 4
      vertex 1.37532 -0.999222 0
    endloop
  endfacet
  facet normal -0.770542 0.637389 0
    outer loop
      vertex 1.37532 -0.999222 4
      vertex 1.23924 -1.16373 0
      vertex 1.23924 -1.16373 4
    endloop
  endfacet
  facet normal -0.684528 0.728986 0
    outer loop
      vertex 1.23924 -1.16373 0
      vertex 1.08362 -1.30986 4
      vertex 1.23924 -1.16373 4
    endloop
  endfacet
  facet normal -0.684528 0.728986 0
    outer loop
      vertex 1.08362 -1.30986 4
      vertex 1.23924 -1.16373 0
      vertex 1.08362 -1.30986 0
    endloop
  endfacet
  facet normal -0.587798 0.809008 0
    outer loop
      vertex 1.08362 -1.30986 0
      vertex 0.910904 -1.43535 4
      vertex 1.08362 -1.30986 4
    endloop
  endfacet
  facet normal -0.587798 0.809008 0
    outer loop
      vertex 0.910904 -1.43535 4
      vertex 1.08362 -1.30986 0
      vertex 0.910904 -1.43535 0
    endloop
  endfacet
  facet normal -0.481724 0.876323 0
    outer loop
      vertex 0.910904 -1.43535 0
      vertex 0.723816 -1.53819 4
      vertex 0.910904 -1.43535 4
    endloop
  endfacet
  facet normal -0.481724 0.876323 0
    outer loop
      vertex 0.723816 -1.53819 4
      vertex 0.910904 -1.43535 0
      vertex 0.723816 -1.53819 0
    endloop
  endfacet
  facet normal -0.368148 0.929767 0
    outer loop
      vertex 0.723816 -1.53819 0
      vertex 0.525314 -1.61679 4
      vertex 0.723816 -1.53819 4
    endloop
  endfacet
  facet normal -0.368148 0.929767 0
    outer loop
      vertex 0.525314 -1.61679 4
      vertex 0.723816 -1.53819 0
      vertex 0.525314 -1.61679 0
    endloop
  endfacet
  facet normal -0.248669 0.968588 0
    outer loop
      vertex 0.525314 -1.61679 0
      vertex 0.318542 -1.66988 4
      vertex 0.525314 -1.61679 4
    endloop
  endfacet
  facet normal -0.248669 0.968588 0
    outer loop
      vertex 0.318542 -1.66988 4
      vertex 0.525314 -1.61679 0
      vertex 0.318542 -1.66988 0
    endloop
  endfacet
  facet normal -0.125363 0.992111 0
    outer loop
      vertex 0.318542 -1.66988 0
      vertex 0.106735 -1.69664 4
      vertex 0.318542 -1.66988 4
    endloop
  endfacet
  facet normal -0.125363 0.992111 0
    outer loop
      vertex 0.106735 -1.69664 4
      vertex 0.318542 -1.66988 0
      vertex 0.106735 -1.69664 0
    endloop
  endfacet
  facet normal 0 1 -0
    outer loop
      vertex 0.106735 -1.69664 0
      vertex -0.106735 -1.69664 4
      vertex 0.106735 -1.69664 4
    endloop
  endfacet
  facet normal 0 1 0
    outer loop
      vertex -0.106735 -1.69664 4
      vertex 0.106735 -1.69664 0
      vertex -0.106735 -1.69664 0
    endloop
  endfacet
  facet normal 0 0 -1
    outer loop
      vertex 1.7 0 0
      vertex 4.66666 0 0
      vertex 4.62987 -0.584885 0
    endloop
  endfacet
  facet normal 0 0 -1
    outer loop
      vertex 1.68658 -0.213058 0
      vertex 4.62987 -0.584885 0
      vertex 4.52005 -1.16054 0
    endloop
  endfacet
  facet normal 0 0 -1
    outer loop
      vertex 4.66666 0 0
      vertex 1.7 0 0
      vertex 4.62987 0.584885 0
    endloop
  endfacet
  facet normal 0 0 -1
    outer loop
      vertex 1.64659 -0.42276 0
      vertex 4.52005 -1.16054 0
      vertex 4.33894 -1.71791 0
    endloop
  endfacet
  facet normal 0 0 -1
    outer loop
      vertex 1.68658 0.213058 0
      vertex 4.62987 0.584885 0
      vertex 1.7 0 0
    endloop
  endfacet
  facet normal 0 0 -1
    outer loop
      vertex 1.58061 -0.625809 0
      vertex 4.33894 -1.71791 0
      vertex 4.08942 -2.24817 0
    endloop
  endfacet
  facet normal -0 0 -1
    outer loop
      vertex 4.62987 0.584885 0
      vertex 1.68658 0.213058 0
      vertex 4.52005 1.16054 0
    endloop
  endfacet
  facet normal 0 0 -1
    outer loop
      vertex 1.48972 -0.81897 0
      vertex 4.08942 -2.24817 0
      vertex 3.77541 -2.743 0
    endloop
  endfacet
  facet normal 0 0 -1
    outer loop
      vertex 1.64659 0.42276 0
      vertex 4.52005 1.16054 0
      vertex 1.68658 0.213058 0
    endloop
  endfacet
  facet normal 0 0 -1
    outer loop
      vertex 1.37532 -0.999222 0
      vertex 3.77541 -2.743 0
      vertex 3.40184 -3.19455 0
    endloop
  endfacet
  facet normal -0 0 -1
    outer loop
      vertex 4.52005 1.16054 0
      vertex 1.64659 0.42276 0
      vertex 4.33894 1.71791 0
    endloop
  endfacet
  facet normal 0 0 -1
    outer loop
      vertex 1.23924 -1.16373 0
      vertex 3.40184 -3.19455 0
      vertex 2.97464 -3.59572 0
    endloop
  endfacet
  facet normal 0 0 -1
    outer loop
      vertex 1.58061 0.625809 0
      vertex 4.33894 1.71791 0
      vertex 1.64659 0.42276 0
    endloop
  endfacet
  facet normal 0 0 -1
    outer loop
      vertex 1.08362 -1.30986 0
      vertex 2.97464 -3.59572 0
      vertex 2.50052 -3.94019 0
    endloop
  endfacet
  facet normal -0 0 -1
    outer loop
      vertex 4.33894 1.71791 0
      vertex 1.58061 0.625809 0
      vertex 4.08942 2.24817 0
    endloop
  endfacet
  facet normal 0 0 -1
    outer loop
      vertex 0.910904 -1.43535 0
      vertex 2.50052 -3.94019 0
      vertex 1.98697 -4.22252 0
    endloop
  endfacet
  facet normal 0 0 -1
    outer loop
      vertex 1.48972 0.81897 0
      vertex 4.08942 2.24817 0
      vertex 1.58061 0.625809 0
    endloop
  endfacet
  facet normal -0 0 -1
    outer loop
      vertex 4.08942 2.24817 0
      vertex 1.48972 0.81897 0
      vertex 3.77541 2.743 0
    endloop
  endfacet
  facet normal 0 0 -1
    outer loop
      vertex 4.62987 -0.584885 0
      vertex 1.68658 -0.213058 0
      vertex 1.7 0 0
    endloop
  endfacet
  facet normal 0 0 -1
    outer loop
      vertex 4.52005 -1.16054 0
      vertex 1.64659 -0.42276 0
      vertex 1.68658 -0.213058 0
    endloop
  endfacet
  facet normal 0 0 -1
    outer loop
      vertex 4.33894 -1.71791 0
      vertex 1.58061 -0.625809 0
      vertex 1.64659 -0.42276 0
    endloop
  endfacet
  facet normal 0 0 -1
    outer loop
      vertex 4.08942 -2.24817 0
      vertex 1.48972 -0.81897 0
      vertex 1.58061 -0.625809 0
    endloop
  endfacet
  facet normal 0 0 -1
    outer loop
      vertex 0.723816 -1.53819 0
      vertex 1.98697 -4.22252 0
      vertex 1.44208 -4.43826 0
    endloop
  endfacet
  facet normal 0 0 -1
    outer loop
      vertex 3.77541 -2.743 0
      vertex 1.37532 -0.999222 0
      vertex 1.48972 -0.81897 0
    endloop
  endfacet
  facet normal 0 0 -1
    outer loop
      vertex 3.40184 -3.19455 0
      vertex 1.23924 -1.16373 0
      vertex 1.37532 -0.999222 0
    endloop
  endfacet
  facet normal 0 0 -1
    outer loop
      vertex 2.97464 -3.59572 0
      vertex 1.08362 -1.30986 0
      vertex 1.23924 -1.16373 0
    endloop
  endfacet
  facet normal 0 0 -1
    outer loop
      vertex 2.50052 -3.94019 0
      vertex 0.910904 -1.43535 0
      vertex 1.08362 -1.30986 0
    endloop
  endfacet
  facet normal 0 0 -1
    outer loop
      vertex 0.525314 -1.61679 0
      vertex 1.44208 -4.43826 0
      vertex 0.874435 -4.584 0
    endloop
  endfacet
  facet normal 0 0 -1
    outer loop
      vertex 1.98697 -4.22252 0
      vertex 0.723816 -1.53819 0
      vertex 0.910904 -1.43535 0
    endloop
  endfacet
  facet normal 0 0 -1
    outer loop
      vertex 1.44208 -4.43826 0
      vertex 0.525314 -1.61679 0
      vertex 0.723816 -1.53819 0
    endloop
  endfacet
  facet normal 0 0 -1
    outer loop
      vertex 0.874435 -4.584 0
      vertex 0.318542 -1.66988 0
      vertex 0.525314 -1.61679 0
    endloop
  endfacet
  facet normal 0 0 -1
    outer loop
      vertex 0.293015 -4.65746 0
      vertex 0.318542 -1.66988 0
      vertex 0.874435 -4.584 0
    endloop
  endfacet
  facet normal 0 0 -1
    outer loop
      vertex 0.293015 -4.65746 0
      vertex 0.106735 -1.69664 0
      vertex 0.318542 -1.66988 0
    endloop
  endfacet
  facet normal 0 0 -1
    outer loop
      vertex 0.293015 -4.65746 0
      vertex -0.106735 -1.69664 0
      vertex 0.106735 -1.69664 0
    endloop
  endfacet
  facet normal 0 0 -1
    outer loop
      vertex -0.293015 -4.65746 0
      vertex -0.106735 -1.69664 0
      vertex 0.293015 -4.65746 0
    endloop
  endfacet
  facet normal 0 0 -1
    outer loop
      vertex -0.293015 -4.65746 0
      vertex -0.318542 -1.66988 0
      vertex -0.106735 -1.69664 0
    endloop
  endfacet
  facet normal 0 0 -1
    outer loop
      vertex -0.874435 -4.584 0
      vertex -0.318542 -1.66988 0
      vertex -0.293015 -4.65746 0
    endloop
  endfacet
  facet normal -0 0 -1
    outer loop
      vertex -0.318542 -1.66988 0
      vertex -0.874435 -4.584 0
      vertex -0.525314 -1.61679 0
    endloop
  endfacet
  facet normal 0 0 -1
    outer loop
      vertex -1.44208 -4.43826 0
      vertex -0.525314 -1.61679 0
      vertex -0.874435 -4.584 0
    endloop
  endfacet
  facet normal -0 0 -1
    outer loop
      vertex -0.525314 -1.61679 0
      vertex -1.44208 -4.43826 0
      vertex -0.723816 -1.53819 0
    endloop
  endfacet
  facet normal 0 0 -1
    outer loop
      vertex -1.98697 -4.22252 0
      vertex -0.723816 -1.53819 0
      vertex -1.44208 -4.43826 0
    endloop
  endfacet
  facet normal -0 0 -1
    outer loop
      vertex -0.723816 -1.53819 0
      vertex -1.98697 -4.22252 0
      vertex -0.910904 -1.43535 0
    endloop
  endfacet
  facet normal 0 0 -1
    outer loop
      vertex -2.50052 -3.94019 0
      vertex -0.910904 -1.43535 0
      vertex -1.98697 -4.22252 0
    endloop
  endfacet
  facet normal -0 0 -1
    outer loop
      vertex -0.910904 -1.43535 0
      vertex -2.50052 -3.94019 0
      vertex -1.08362 -1.30986 0
    endloop
  endfacet
  facet normal 0 0 -1
    outer loop
      vertex -2.97464 -3.59572 0
      vertex -1.08362 -1.30986 0
      vertex -2.50052 -3.94019 0
    endloop
  endfacet
  facet normal -0 0 -1
    outer loop
      vertex -1.08362 -1.30986 0
      vertex -2.97464 -3.59572 0
      vertex -1.23924 -1.16373 0
    endloop
  endfacet
  facet normal 0 0 -1
    outer loop
      vertex -3.40184 -3.19455 0
      vertex -1.23924 -1.16373 0
      vertex -2.97464 -3.59572 0
    endloop
  endfacet
  facet normal -0 0 -1
    outer loop
      vertex -1.23924 -1.16373 0
      vertex -3.40184 -3.19455 0
      vertex -1.37532 -0.999222 0
    endloop
  endfacet
  facet normal 0 0 -1
    outer loop
      vertex -3.77541 -2.743 0
      vertex -1.37532 -0.999222 0
      vertex -3.40184 -3.19455 0
    endloop
  endfacet
  facet normal -0 0 -1
    outer loop
      vertex -1.37532 -0.999222 0
      vertex -3.77541 -2.743 0
      vertex -1.48972 -0.81897 0
    endloop
  endfacet
  facet normal 0 0 -1
    outer loop
      vertex 1.37532 0.999222 0
      vertex 3.77541 2.743 0
      vertex 1.48972 0.81897 0
    endloop
  endfacet
  facet normal -0 0 -1
    outer loop
      vertex 3.77541 2.743 0
      vertex 1.37532 0.999222 0
      vertex 3.40184 3.19455 0
    endloop
  endfacet
  facet normal 0 0 -1
    outer loop
      vertex 1.23924 1.16373 0
      vertex 3.40184 3.19455 0
      vertex 1.37532 0.999222 0
    endloop
  endfacet
  facet normal -0 0 -1
    outer loop
      vertex 3.40184 3.19455 0
      vertex 1.23924 1.16373 0
      vertex 2.97464 3.59572 0
    endloop
  endfacet
  facet normal 0 0 -1
    outer loop
      vertex 1.08362 1.30986 0
      vertex 2.97464 3.59572 0
      vertex 1.23924 1.16373 0
    endloop
  endfacet
  facet normal -0 0 -1
    outer loop
      vertex 2.97464 3.59572 0
      vertex 1.08362 1.30986 0
      vertex 2.50052 3.94019 0
    endloop
  endfacet
  facet normal 0 0 -1
    outer loop
      vertex 0.910904 1.43535 0
      vertex 2.50052 3.94019 0
      vertex 1.08362 1.30986 0
    endloop
  endfacet
  facet normal -0 0 -1
    outer loop
      vertex 2.50052 3.94019 0
      vertex 0.910904 1.43535 0
      vertex 1.98697 4.22252 0
    endloop
  endfacet
  facet normal 0 0 -1
    outer loop
      vertex 0.723816 1.53819 0
      vertex 1.98697 4.22252 0
      vertex 0.910904 1.43535 0
    endloop
  endfacet
  facet normal -0 0 -1
    outer loop
      vertex 1.98697 4.22252 0
      vertex 0.723816 1.53819 0
      vertex 1.44208 4.43826 0
    endloop
  endfacet
  facet normal 0 0 -1
    outer loop
      vertex 0.525314 1.61679 0
      vertex 1.44208 4.43826 0
      vertex 0.723816 1.53819 0
    endloop
  endfacet
  facet normal -0 0 -1
    outer loop
      vertex 1.44208 4.43826 0
      vertex 0.525314 1.61679 0
      vertex 0.874435 4.584 0
    endloop
  endfacet
  facet normal 0 0 -1
    outer loop
      vertex 0.318542 1.66988 0
      vertex 0.874435 4.584 0
      vertex 0.525314 1.61679 0
    endloop
  endfacet
  facet normal 0 0 -1
    outer loop
      vertex 0.318542 1.66988 0
      vertex 0.293015 4.65746 0
      vertex 0.874435 4.584 0
    endloop
  endfacet
  facet normal 0 0 -1
    outer loop
      vertex 0.106735 1.69664 0
      vertex 0.293015 4.65746 0
      vertex 0.318542 1.66988 0
    endloop
  endfacet
  facet normal 0 0 -1
    outer loop
      vertex -0.106735 1.69664 0
      vertex 0.293015 4.65746 0
      vertex 0.106735 1.69664 0
    endloop
  endfacet
  facet normal 0 0 -1
    outer loop
      vertex -0.106735 1.69664 0
      vertex -0.293015 4.65746 0
      vertex 0.293015 4.65746 0
    endloop
  endfacet
  facet normal 0 0 -1
    outer loop
      vertex -0.318542 1.66988 0
      vertex -0.293015 4.65746 0
      vertex -0.106735 1.69664 0
    endloop
  endfacet
  facet normal 0 0 -1
    outer loop
      vertex -0.874435 4.584 0
      vertex -0.318542 1.66988 0
      vertex -0.525314 1.61679 0
    endloop
  endfacet
  facet normal 0 0 -1
    outer loop
      vertex -1.44208 4.43826 0
      vertex -0.525314 1.61679 0
      vertex -0.723816 1.53819 0
    endloop
  endfacet
  facet normal 0 0 -1
    outer loop
      vertex -0.318542 1.66988 0
      vertex -0.874435 4.584 0
      vertex -0.293015 4.65746 0
    endloop
  endfacet
  facet normal 0 0 -1
    outer loop
      vertex -1.98697 4.22252 0
      vertex -0.723816 1.53819 0
      vertex -0.910904 1.43535 0
    endloop
  endfacet
  facet normal 0 0 -1
    outer loop
      vertex -2.50052 3.94019 0
      vertex -0.910904 1.43535 0
      vertex -1.08362 1.30986 0
    endloop
  endfacet
  facet normal 0 0 -1
    outer loop
      vertex -2.97464 3.59572 0
      vertex -1.08362 1.30986 0
      vertex -1.23924 1.16373 0
    endloop
  endfacet
  facet normal 0 0 -1
    outer loop
      vertex -3.40184 3.19455 0
      vertex -1.23924 1.16373 0
      vertex -1.37532 0.999222 0
    endloop
  endfacet
  facet normal 0 0 -1
    outer loop
      vertex -0.525314 1.61679 0
      vertex -1.44208 4.43826 0
      vertex -0.874435 4.584 0
    endloop
  endfacet
  facet normal 0 0 -1
    outer loop
      vertex -3.77541 2.743 0
      vertex -1.37532 0.999222 0
      vertex -1.48972 0.81897 0
    endloop
  endfacet
  facet normal 0 0 -1
    outer loop
      vertex -4.08942 2.24817 0
      vertex -1.48972 0.81897 0
      vertex -1.58061 0.625809 0
    endloop
  endfacet
  facet normal 0 0 -1
    outer loop
      vertex -4.33894 1.71791 0
      vertex -1.58061 0.625809 0
      vertex -1.64659 0.42276 0
    endloop
  endfacet
  facet normal 0 0 -1
    outer loop
      vertex -4.52005 1.16054 0
      vertex -1.64659 0.42276 0
      vertex -1.68658 0.213058 0
    endloop
  endfacet
  facet normal 0 0 -1
    outer loop
      vertex -4.62987 0.584885 0
      vertex -1.68658 0.213058 0
      vertex -1.7 0 0
    endloop
  endfacet
  facet normal 0 0 -1
    outer loop
      vertex -4.08942 -2.24817 0
      vertex -1.48972 -0.81897 0
      vertex -3.77541 -2.743 0
    endloop
  endfacet
  facet normal 0 0 -1
    outer loop
      vertex -0.723816 1.53819 0
      vertex -1.98697 4.22252 0
      vertex -1.44208 4.43826 0
    endloop
  endfacet
  facet normal -0 0 -1
    outer loop
      vertex -1.48972 -0.81897 0
      vertex -4.08942 -2.24817 0
      vertex -1.58061 -0.625809 0
    endloop
  endfacet
  facet normal 0 0 -1
    outer loop
      vertex -0.910904 1.43535 0
      vertex -2.50052 3.94019 0
      vertex -1.98697 4.22252 0
    endloop
  endfacet
  facet normal 0 0 -1
    outer loop
      vertex -4.33894 -1.71791 0
      vertex -1.58061 -0.625809 0
      vertex -4.08942 -2.24817 0
    endloop
  endfacet
  facet normal 0 0 -1
    outer loop
      vertex -1.08362 1.30986 0
      vertex -2.97464 3.59572 0
      vertex -2.50052 3.94019 0
    endloop
  endfacet
  facet normal -0 0 -1
    outer loop
      vertex -1.58061 -0.625809 0
      vertex -4.33894 -1.71791 0
      vertex -1.64659 -0.42276 0
    endloop
  endfacet
  facet normal 0 0 -1
    outer loop
      vertex -1.23924 1.16373 0
      vertex -3.40184 3.19455 0
      vertex -2.97464 3.59572 0
    endloop
  endfacet
  facet normal 0 0 -1
    outer loop
      vertex -4.52005 -1.16054 0
      vertex -1.64659 -0.42276 0
      vertex -4.33894 -1.71791 0
    endloop
  endfacet
  facet normal 0 0 -1
    outer loop
      vertex -1.37532 0.999222 0
      vertex -3.77541 2.743 0
      vertex -3.40184 3.19455 0
    endloop
  endfacet
  facet normal -0 0 -1
    outer loop
      vertex -1.64659 -0.42276 0
      vertex -4.52005 -1.16054 0
      vertex -1.68658 -0.213058 0
    endloop
  endfacet
  facet normal 0 0 -1
    outer loop
      vertex -1.48972 0.81897 0
      vertex -4.08942 2.24817 0
      vertex -3.77541 2.743 0
    endloop
  endfacet
  facet normal 0 0 -1
    outer loop
      vertex -4.62987 -0.584885 0
      vertex -1.68658 -0.213058 0
      vertex -4.52005 -1.16054 0
    endloop
  endfacet
  facet normal 0 0 -1
    outer loop
      vertex -1.58061 0.625809 0
      vertex -4.33894 1.71791 0
      vertex -4.08942 2.24817 0
    endloop
  endfacet
  facet normal -0 0 -1
    outer loop
      vertex -1.68658 -0.213058 0
      vertex -4.62987 -0.584885 0
      vertex -1.7 0 0
    endloop
  endfacet
  facet normal 0 0 -1
    outer loop
      vertex -1.64659 0.42276 0
      vertex -4.52005 1.16054 0
      vertex -4.33894 1.71791 0
    endloop
  endfacet
  facet normal 0 0 -1
    outer loop
      vertex -4.66666 0 0
      vertex -1.7 0 0
      vertex -4.62987 -0.584885 0
    endloop
  endfacet
  facet normal 0 0 -1
    outer loop
      vertex -1.68658 0.213058 0
      vertex -4.62987 0.584885 0
      vertex -4.52005 1.16054 0
    endloop
  endfacet
  facet normal 0 0 -1
    outer loop
      vertex -1.7 0 0
      vertex -4.66666 0 0
      vertex -4.62987 0.584885 0
    endloop
  endfacet
  facet normal 0.248675 -0.968587 0
    outer loop
      vertex 0.874435 -4.584 0
      vertex 1.44208 -4.43826 2
      vertex 0.874435 -4.584 2
    endloop
  endfacet
  facet normal 0.248675 -0.968587 0
    outer loop
      vertex 1.44208 -4.43826 2
      vertex 0.874435 -4.584 0
      vertex 1.44208 -4.43826 0
    endloop
  endfacet
  facet normal 0.368134 -0.929773 0
    outer loop
      vertex 1.44208 -4.43826 0
      vertex 1.98697 -4.22252 2
      vertex 1.44208 -4.43826 2
    endloop
  endfacet
  facet normal 0.368134 -0.929773 0
    outer loop
      vertex 1.98697 -4.22252 2
      vertex 1.44208 -4.43826 0
      vertex 1.98697 -4.22252 0
    endloop
  endfacet
  facet normal 0.481763 -0.876302 0
    outer loop
      vertex 1.98697 -4.22252 0
      vertex 2.50052 -3.94019 2
      vertex 1.98697 -4.22252 2
    endloop
  endfacet
  facet normal 0.481763 -0.876302 0
    outer loop
      vertex 2.50052 -3.94019 2
      vertex 1.98697 -4.22252 0
      vertex 2.50052 -3.94019 0
    endloop
  endfacet
  facet normal 0.587783 -0.809019 0
    outer loop
      vertex 2.50052 -3.94019 0
      vertex 2.97464 -3.59572 2
      vertex 2.50052 -3.94019 2
    endloop
  endfacet
  facet normal 0.587783 -0.809019 0
    outer loop
      vertex 2.97464 -3.59572 2
      vertex 2.50052 -3.94019 0
      vertex 2.97464 -3.59572 0
    endloop
  endfacet
  facet normal 0.684548 -0.728968 0
    outer loop
      vertex 2.97464 -3.59572 0
      vertex 3.40184 -3.19455 2
      vertex 2.97464 -3.59572 2
    endloop
  endfacet
  facet normal 0.684548 -0.728968 0
    outer loop
      vertex 3.40184 -3.19455 2
      vertex 2.97464 -3.59572 0
      vertex 3.40184 -3.19455 0
    endloop
  endfacet
  facet normal 0.770506 -0.637432 0
    outer loop
      vertex 3.40184 -3.19455 2
      vertex 3.77541 -2.743 0
      vertex 3.77541 -2.743 2
    endloop
  endfacet
  facet normal 0.770506 -0.637432 0
    outer loop
      vertex 3.77541 -2.743 0
      vertex 3.40184 -3.19455 2
      vertex 3.40184 -3.19455 0
    endloop
  endfacet
  facet normal 0.844341 -0.535807 0
    outer loop
      vertex 3.77541 -2.743 2
      vertex 4.08942 -2.24817 0
      vertex 4.08942 -2.24817 2
    endloop
  endfacet
  facet normal 0.844341 -0.535807 0
    outer loop
      vertex 4.08942 -2.24817 0
      vertex 3.77541 -2.743 2
      vertex 3.77541 -2.743 0
    endloop
  endfacet
  facet normal 0.904823 -0.425788 0
    outer loop
      vertex 4.08942 -2.24817 2
      vertex 4.33894 -1.71791 0
      vertex 4.33894 -1.71791 2
    endloop
  endfacet
  facet normal 0.904823 -0.425788 0
    outer loop
      vertex 4.33894 -1.71791 0
      vertex 4.08942 -2.24817 2
      vertex 4.08942 -2.24817 0
    endloop
  endfacet
  facet normal 0.951054 -0.309025 0
    outer loop
      vertex 4.33894 -1.71791 2
      vertex 4.52005 -1.16054 0
      vertex 4.52005 -1.16054 2
    endloop
  endfacet
  facet normal 0.951054 -0.309025 0
    outer loop
      vertex 4.52005 -1.16054 0
      vertex 4.33894 -1.71791 2
      vertex 4.33894 -1.71791 0
    endloop
  endfacet
  facet normal 0.982285 -0.187391 0
    outer loop
      vertex 4.52005 -1.16054 2
      vertex 4.62987 -0.584885 0
      vertex 4.62987 -0.584885 2
    endloop
  endfacet
  facet normal 0.982285 -0.187391 0
    outer loop
      vertex 4.62987 -0.584885 0
      vertex 4.52005 -1.16054 2
      vertex 4.52005 -1.16054 0
    endloop
  endfacet
  facet normal 0.998028 -0.0627754 0
    outer loop
      vertex 4.62987 -0.584885 2
      vertex 4.66666 0 0
      vertex 4.66666 0 2
    endloop
  endfacet
  facet normal 0.998028 -0.0627754 0
    outer loop
      vertex 4.66666 0 0
      vertex 4.62987 -0.584885 2
      vertex 4.62987 -0.584885 0
    endloop
  endfacet
  facet normal 0.998028 0.0627754 0
    outer loop
      vertex 4.66666 0 2
      vertex 4.62987 0.584885 0
      vertex 4.62987 0.584885 2
    endloop
  endfacet
  facet normal 0.998028 0.0627754 0
    outer loop
      vertex 4.62987 0.584885 0
      vertex 4.66666 0 2
      vertex 4.66666 0 0
    endloop
  endfacet
  facet normal 0.982285 0.187391 0
    outer loop
      vertex 4.62987 0.584885 2
      vertex 4.52005 1.16054 0
      vertex 4.52005 1.16054 2
    endloop
  endfacet
  facet normal 0.982285 0.187391 0
    outer loop
      vertex 4.52005 1.16054 0
      vertex 4.62987 0.584885 2
      vertex 4.62987 0.584885 0
    endloop
  endfacet
  facet normal 0.951054 0.309025 0
    outer loop
      vertex 4.52005 1.16054 2
      vertex 4.33894 1.71791 0
      vertex 4.33894 1.71791 2
    endloop
  endfacet
  facet normal 0.951054 0.309025 0
    outer loop
      vertex 4.33894 1.71791 0
      vertex 4.52005 1.16054 2
      vertex 4.52005 1.16054 0
    endloop
  endfacet
  facet normal 0.904823 0.425788 0
    outer loop
      vertex 4.33894 1.71791 2
      vertex 4.08942 2.24817 0
      vertex 4.08942 2.24817 2
    endloop
  endfacet
  facet normal 0.904823 0.425788 0
    outer loop
      vertex 4.08942 2.24817 0
      vertex 4.33894 1.71791 2
      vertex 4.33894 1.71791 0
    endloop
  endfacet
  facet normal 0.844341 0.535807 0
    outer loop
      vertex 4.08942 2.24817 2
      vertex 3.77541 2.743 0
      vertex 3.77541 2.743 2
    endloop
  endfacet
  facet normal 0.844341 0.535807 0
    outer loop
      vertex 3.77541 2.743 0
      vertex 4.08942 2.24817 2
      vertex 4.08942 2.24817 0
    endloop
  endfacet
  facet normal 0.770506 0.637432 0
    outer loop
      vertex 3.77541 2.743 2
      vertex 3.40184 3.19455 0
      vertex 3.40184 3.19455 2
    endloop
  endfacet
  facet normal 0.770506 0.637432 0
    outer loop
      vertex 3.40184 3.19455 0
      vertex 3.77541 2.743 2
      vertex 3.77541 2.743 0
    endloop
  endfacet
  facet normal 0.684548 0.728968 -0
    outer loop
      vertex 3.40184 3.19455 0
      vertex 2.97464 3.59572 2
      vertex 3.40184 3.19455 2
    endloop
  endfacet
  facet normal 0.684548 0.728968 0
    outer loop
      vertex 2.97464 3.59572 2
      vertex 3.40184 3.19455 0
      vertex 2.97464 3.59572 0
    endloop
  endfacet
  facet normal 0.587783 0.809019 -0
    outer loop
      vertex 2.97464 3.59572 0
      vertex 2.50052 3.94019 2
      vertex 2.97464 3.59572 2
    endloop
  endfacet
  facet normal 0.587783 0.809019 0
    outer loop
      vertex 2.50052 3.94019 2
      vertex 2.97464 3.59572 0
      vertex 2.50052 3.94019 0
    endloop
  endfacet
  facet normal 0.481763 0.876302 -0
    outer loop
      vertex 2.50052 3.94019 0
      vertex 1.98697 4.22252 2
      vertex 2.50052 3.94019 2
    endloop
  endfacet
  facet normal 0.481763 0.876302 0
    outer loop
      vertex 1.98697 4.22252 2
      vertex 2.50052 3.94019 0
      vertex 1.98697 4.22252 0
    endloop
  endfacet
  facet normal 0.368134 0.929773 -0
    outer loop
      vertex 1.98697 4.22252 0
      vertex 1.44208 4.43826 2
      vertex 1.98697 4.22252 2
    endloop
  endfacet
  facet normal 0.368134 0.929773 0
    outer loop
      vertex 1.44208 4.43826 2
      vertex 1.98697 4.22252 0
      vertex 1.44208 4.43826 0
    endloop
  endfacet
  facet normal 0.248675 0.968587 -0
    outer loop
      vertex 1.44208 4.43826 0
      vertex 0.874435 4.584 2
      vertex 1.44208 4.43826 2
    endloop
  endfacet
  facet normal 0.248675 0.968587 0
    outer loop
      vertex 0.874435 4.584 2
      vertex 1.44208 4.43826 0
      vertex 0.874435 4.584 0
    endloop
  endfacet
  facet normal 0.125342 0.992114 -0
    outer loop
      vertex 0.874435 4.584 0
      vertex 0.293015 4.65746 2
      vertex 0.874435 4.584 2
    endloop
  endfacet
  facet normal 0.125342 0.992114 0
    outer loop
      vertex 0.293015 4.65746 2
      vertex 0.874435 4.584 0
      vertex 0.293015 4.65746 0
    endloop
  endfacet
  facet normal 0 1 -0
    outer loop
      vertex 0.293015 4.65746 0
      vertex -0.293015 4.65746 2
      vertex 0.293015 4.65746 2
    endloop
  endfacet
  facet normal 0 1 0
    outer loop
      vertex -0.293015 4.65746 2
      vertex 0.293015 4.65746 0
      vertex -0.293015 4.65746 0
    endloop
  endfacet
  facet normal -0.125342 0.992114 0
    outer loop
      vertex -0.293015 4.65746 0
      vertex -0.874435 4.584 2
      vertex -0.293015 4.65746 2
    endloop
  endfacet
  facet normal -0.125342 0.992114 0
    outer loop
      vertex -0.874435 4.584 2
      vertex -0.293015 4.65746 0
      vertex -0.874435 4.584 0
    endloop
  endfacet
  facet normal -0.248675 0.968587 0
    outer loop
      vertex -0.874435 4.584 0
      vertex -1.44208 4.43826 2
      vertex -0.874435 4.584 2
    endloop
  endfacet
  facet normal -0.248675 0.968587 0
    outer loop
      vertex -1.44208 4.43826 2
      vertex -0.874435 4.584 0
      vertex -1.44208 4.43826 0
    endloop
  endfacet
  facet normal -0.368134 0.929773 0
    outer loop
      vertex -1.44208 4.43826 0
      vertex -1.98697 4.22252 2
      vertex -1.44208 4.43826 2
    endloop
  endfacet
  facet normal -0.368134 0.929773 0
    outer loop
      vertex -1.98697 4.22252 2
      vertex -1.44208 4.43826 0
      vertex -1.98697 4.22252 0
    endloop
  endfacet
  facet normal -0.481763 0.876302 0
    outer loop
      vertex -1.98697 4.22252 0
      vertex -2.50052 3.94019 2
      vertex -1.98697 4.22252 2
    endloop
  endfacet
  facet normal -0.481763 0.876302 0
    outer loop
      vertex -2.50052 3.94019 2
      vertex -1.98697 4.22252 0
      vertex -2.50052 3.94019 0
    endloop
  endfacet
  facet normal -0.587783 0.809019 0
    outer loop
      vertex -2.50052 3.94019 0
      vertex -2.97464 3.59572 2
      vertex -2.50052 3.94019 2
    endloop
  endfacet
  facet normal -0.587783 0.809019 0
    outer loop
      vertex -2.97464 3.59572 2
      vertex -2.50052 3.94019 0
      vertex -2.97464 3.59572 0
    endloop
  endfacet
  facet normal -0.684548 0.728968 0
    outer loop
      vertex -2.97464 3.59572 0
      vertex -3.40184 3.19455 2
      vertex -2.97464 3.59572 2
    endloop
  endfacet
  facet normal -0.684548 0.728968 0
    outer loop
      vertex -3.40184 3.19455 2
      vertex -2.97464 3.59572 0
      vertex -3.40184 3.19455 0
    endloop
  endfacet
  facet normal -0.770506 0.637432 0
    outer loop
      vertex -3.77541 2.743 0
      vertex -3.40184 3.19455 2
      vertex -3.40184 3.19455 0
    endloop
  endfacet
  facet normal -0.770506 0.637432 0
    outer loop
      vertex -3.40184 3.19455 2
      vertex -3.77541 2.743 0
      vertex -3.77541 2.743 2
    endloop
  endfacet
  facet normal -0.844341 0.535807 0
    outer loop
      vertex -4.08942 2.24817 0
      vertex -3.77541 2.743 2
      vertex -3.77541 2.743 0
    endloop
  endfacet
  facet normal -0.844341 0.535807 0
    outer loop
      vertex -3.77541 2.743 2
      vertex -4.08942 2.24817 0
      vertex -4.08942 2.24817 2
    endloop
  endfacet
  facet normal -0.904823 0.425788 0
    outer loop
      vertex -4.33894 1.71791 0
      vertex -4.08942 2.24817 2
      vertex -4.08942 2.24817 0
    endloop
  endfacet
  facet normal -0.904823 0.425788 0
    outer loop
      vertex -4.08942 2.24817 2
      vertex -4.33894 1.71791 0
      vertex -4.33894 1.71791 2
    endloop
  endfacet
  facet normal -0.951054 0.309025 0
    outer loop
      vertex -4.52005 1.16054 0
      vertex -4.33894 1.71791 2
      vertex -4.33894 1.71791 0
    endloop
  endfacet
  facet normal -0.951054 0.309025 0
    outer loop
      vertex -4.33894 1.71791 2
      vertex -4.52005 1.16054 0
      vertex -4.52005 1.16054 2
    endloop
  endfacet
  facet normal -0.982285 0.187391 0
    outer loop
      vertex -4.62987 0.584885 0
      vertex -4.52005 1.16054 2
      vertex -4.52005 1.16054 0
    endloop
  endfacet
  facet normal -0.982285 0.187391 0
    outer loop
      vertex -4.52005 1.16054 2
      vertex -4.62987 0.584885 0
      vertex -4.62987 0.584885 2
    endloop
  endfacet
  facet normal -0.998028 0.0627754 0
    outer loop
      vertex -4.66666 0 0
      vertex -4.62987 0.584885 2
      vertex -4.62987 0.584885 0
    endloop
  endfacet
  facet normal -0.998028 0.0627754 0
    outer loop
      vertex -4.62987 0.584885 2
      vertex -4.66666 0 0
      vertex -4.66666 0 2
    endloop
  endfacet
  facet normal -0.998028 -0.0627754 0
    outer loop
      vertex -4.62987 -0.584885 0
      vertex -4.66666 0 2
      vertex -4.66666 0 0
    endloop
  endfacet
  facet normal -0.998028 -0.0627754 0
    outer loop
      vertex -4.66666 0 2
      vertex -4.62987 -0.584885 0
      vertex -4.62987 -0.584885 2
    endloop
  endfacet
  facet normal -0.982285 -0.187391 0
    outer loop
      vertex -4.52005 -1.16054 0
      vertex -4.62987 -0.584885 2
      vertex -4.62987 -0.584885 0
    endloop
  endfacet
  facet normal -0.982285 -0.187391 0
    outer loop
      vertex -4.62987 -0.584885 2
      vertex -4.52005 -1.16054 0
      vertex -4.52005 -1.16054 2
    endloop
  endfacet
  facet normal -0.951054 -0.309025 0
    outer loop
      vertex -4.33894 -1.71791 0
      vertex -4.52005 -1.16054 2
      vertex -4.52005 -1.16054 0
    endloop
  endfacet
  facet normal -0.951054 -0.309025 0
    outer loop
      vertex -4.52005 -1.16054 2
      vertex -4.33894 -1.71791 0
      vertex -4.33894 -1.71791 2
    endloop
  endfacet
  facet normal -0.904823 -0.425788 0
    outer loop
      vertex -4.08942 -2.24817 0
      vertex -4.33894 -1.71791 2
      vertex -4.33894 -1.71791 0
    endloop
  endfacet
  facet normal -0.904823 -0.425788 0
    outer loop
      vertex -4.33894 -1.71791 2
      vertex -4.08942 -2.24817 0
      vertex -4.08942 -2.24817 2
    endloop
  endfacet
  facet normal -0.844341 -0.535807 0
    outer loop
      vertex -3.77541 -2.743 0
      vertex -4.08942 -2.24817 2
      vertex -4.08942 -2.24817 0
    endloop
  endfacet
  facet normal -0.844341 -0.535807 0
    outer loop
      vertex -4.08942 -2.24817 2
      vertex -3.77541 -2.743 0
      vertex -3.77541 -2.743 2
    endloop
  endfacet
  facet normal -0.770506 -0.637432 0
    outer loop
      vertex -3.40184 -3.19455 0
      vertex -3.77541 -2.743 2
      vertex -3.77541 -2.743 0
    endloop
  endfacet
  facet normal -0.770506 -0.637432 0
    outer loop
      vertex -3.77541 -2.743 2
      vertex -3.40184 -3.19455 0
      vertex -3.40184 -3.19455 2
    endloop
  endfacet
  facet normal -0.684548 -0.728968 0
    outer loop
      vertex -3.40184 -3.19455 0
      vertex -2.97464 -3.59572 2
      vertex -3.40184 -3.19455 2
    endloop
  endfacet
  facet normal -0.684548 -0.728968 -0
    outer loop
      vertex -2.97464 -3.59572 2
      vertex -3.40184 -3.19455 0
      vertex -2.97464 -3.59572 0
    endloop
  endfacet
  facet normal -0.587783 -0.809019 0
    outer loop
      vertex -2.97464 -3.59572 0
      vertex -2.50052 -3.94019 2
      vertex -2.97464 -3.59572 2
    endloop
  endfacet
  facet normal -0.587783 -0.809019 -0
    outer loop
      vertex -2.50052 -3.94019 2
      vertex -2.97464 -3.59572 0
      vertex -2.50052 -3.94019 0
    endloop
  endfacet
  facet normal -0.481763 -0.876302 0
    outer loop
      vertex -2.50052 -3.94019 0
      vertex -1.98697 -4.22252 2
      vertex -2.50052 -3.94019 2
    endloop
  endfacet
  facet normal -0.481763 -0.876302 -0
    outer loop
      vertex -1.98697 -4.22252 2
      vertex -2.50052 -3.94019 0
      vertex -1.98697 -4.22252 0
    endloop
  endfacet
  facet normal -0.368134 -0.929773 0
    outer loop
      vertex -1.98697 -4.22252 0
      vertex -1.44208 -4.43826 2
      vertex -1.98697 -4.22252 2
    endloop
  endfacet
  facet normal -0.368134 -0.929773 -0
    outer loop
      vertex -1.44208 -4.43826 2
      vertex -1.98697 -4.22252 0
      vertex -1.44208 -4.43826 0
    endloop
  endfacet
  facet normal -0.248675 -0.968587 0
    outer loop
      vertex -1.44208 -4.43826 0
      vertex -0.874435 -4.584 2
      vertex -1.44208 -4.43826 2
    endloop
  endfacet
  facet normal -0.248675 -0.968587 -0
    outer loop
      vertex -0.874435 -4.584 2
      vertex -1.44208 -4.43826 0
      vertex -0.874435 -4.584 0
    endloop
  endfacet
  facet normal -0.125342 -0.992114 0
    outer loop
      vertex -0.874435 -4.584 0
      vertex -0.293015 -4.65746 2
      vertex -0.874435 -4.584 2
    endloop
  endfacet
  facet normal -0.125342 -0.992114 -0
    outer loop
      vertex -0.293015 -4.65746 2
      vertex -0.874435 -4.584 0
      vertex -0.293015 -4.65746 0
    endloop
  endfacet
  facet normal 0 -1 0
    outer loop
      vertex -0.293015 -4.65746 0
      vertex 0.293015 -4.65746 2
      vertex -0.293015 -4.65746 2
    endloop
  endfacet
  facet normal 0 -1 -0
    outer loop
      vertex 0.293015 -4.65746 2
      vertex -0.293015 -4.65746 0
      vertex 0.293015 -4.65746 0
    endloop
  endfacet
  facet normal 0.125342 -0.992114 0
    outer loop
      vertex 0.293015 -4.65746 0
      vertex 0.874435 -4.584 2
      vertex 0.293015 -4.65746 2
    endloop
  endfacet
  facet normal 0.125342 -0.992114 0
    outer loop
      vertex 0.874435 -4.584 2
      vertex 0.293015 -4.65746 0
      vertex 0.874435 -4.584 0
    endloop
  endfacet
endsolid OpenSCAD_Model
